<?xml version="1.0" encoding="utf-8"?>
<!-- Generator: Adobe Illustrator 23.0.0, SVG Export Plug-In . SVG Version: 6.00 Build 0)  -->
<svg version="1.1" id="Layer_1" xmlns="http://www.w3.org/2000/svg" xmlns:xlink="http://www.w3.org/1999/xlink" x="0px" y="0px"
	 viewBox="0 0 13 13" style="enable-background:new 0 0 13 13;" xml:space="preserve">
<style type="text/css">
	.st0{fill:#061D32;}
	.st1{fill-rule:evenodd;clip-rule:evenodd;fill:#061D32;}
</style>
<g>
	<rect x="6" y="0.3" class="st0" width="1" height="1.8"/>
	<rect x="0.2" y="5.9" class="st0" width="1.8" height="1"/>
	<rect x="10.9" y="5.9" class="st0" width="1.8" height="1"/>
	<rect x="2.3" y="1.8" transform="matrix(0.7072 -0.707 0.707 0.7072 -1.1674 2.8043)" class="st0" width="1" height="2"/>
	<rect x="9.7" y="9.5" transform="matrix(0.7148 -0.6994 0.6994 0.7148 -4.3862 10.1451)" class="st0" width="1" height="1.8"/>
	<path class="st1" d="M5.1,11.7c0,0.1,0,0.2,0.1,0.3l0.3,0.5c0.1,0.2,0.3,0.3,0.5,0.3H7c0.2,0,0.4-0.1,0.5-0.3L7.8,12
		c0.1-0.1,0.1-0.2,0.1-0.3V11H5.1V11.7z"/>
	<path class="st1" d="M9.2,4.9C8.9,4.4,8.5,4,8,3.8C7.6,3.5,7,3.3,6.5,3.3c-0.6,0-1.1,0.1-1.6,0.4C4.5,4.1,4.1,4.5,3.8,4.9
		c-0.3,0.5-0.4,1-0.4,1.5c0,0.4,0.1,0.8,0.2,1.1c0.1,0.4,0.3,0.7,0.6,1C4.4,8.8,4.5,9,4.7,9.3C4.9,9.6,5,9.9,5.1,10.2v0h2.8v0
		C8,9.9,8.1,9.6,8.3,9.3C8.5,9,8.6,8.8,8.8,8.6c0.2-0.3,0.4-0.6,0.6-1c0.1-0.4,0.2-0.7,0.2-1.1C9.6,5.9,9.4,5.4,9.2,4.9 M5.6,4.7
		c0.3-0.2,0.6-0.3,0.9-0.3l0.1,0.7c-0.4,0-0.7,0.2-1,0.5C5.3,5.9,5.2,6.3,5.1,6.7L4.5,6.7c0-0.4,0.1-0.7,0.3-1.1
		C5,5.2,5.3,4.9,5.6,4.7"/>
	<rect x="1.8" y="9.9" transform="matrix(0.6993 -0.7149 0.7149 0.6993 -6.6409 5.1141)" class="st0" width="1.8" height="1"/>
	<rect x="9.3" y="2.3" transform="matrix(0.6993 -0.7149 0.7149 0.6993 1.0784 8.1658)" class="st0" width="1.8" height="1"/>
</g>
</svg>
