<?xml version="1.0" encoding="utf-8"?>
<!-- Generator: Adobe Illustrator 23.0.0, SVG Export Plug-In . SVG Version: 6.00 Build 0)  -->
<svg version="1.1" id="Layer_1" xmlns="http://www.w3.org/2000/svg" xmlns:xlink="http://www.w3.org/1999/xlink" x="0px" y="0px"
	 viewBox="0 0 12 11" style="enable-background:new 0 0 12 11;" xml:space="preserve">
<style type="text/css">
	.st0{fill:none;}
</style>
<path class="st0" d="M6,0C2.9,0,0.4,2.5,0.4,5.5c0,3,2.5,5.5,5.6,5.5c3.1,0,5.6-2.5,5.6-5.5C11.6,2.5,9.1,0,6,0z M7.8,3.6
	c0.6,0,0.7,0.5,0.7,0.8c0,0.3-0.2,0.8-0.7,0.8c-0.6,0-0.7-0.5-0.7-0.8C7.1,4.2,7.3,3.6,7.8,3.6z M4.2,3.6C4.8,3.6,5,4.1,5,4.4
	c0,0.3-0.2,0.8-0.7,0.8c-0.7,0-0.7-0.5-0.7-0.8C3.5,4.1,3.7,3.6,4.2,3.6z M9.2,7.4c-0.7,0.9-1.8,1.4-3,1.4c-1.2,0-2.4-0.5-3-1.4
	C3,7.2,3,7,3.2,6.9c0.2-0.1,0.4-0.1,0.5,0.1c0.5,0.7,1.4,1.1,2.4,1.1c1,0,1.9-0.4,2.4-1.1c0.1-0.2,0.4-0.2,0.5-0.1
	C9.3,7,9.3,7.2,9.2,7.4z"/>
</svg>
