<?xml version="1.0" encoding="utf-8"?>
<svg version="1.1" xmlns="http://www.w3.org/2000/svg" xmlns:xlink="http://www.w3.org/1999/xlink" x="0px" y="0px"
	 viewBox="0 0 170 21" style="enable-background:new 0 0 170 21;" xml:space="preserve">
	<path fill="000000" style="opacity: 0.1;" d="M0.77,5.77c0.42,0.07,0.82,0.1,1.2,0.1h2.07l0.05,0.08C4.01,6.29,3.97,6.55,3.97,6.74v0.47
		c0.06,0.51,0.19,0.77,0.38,0.77c0.11-0.2,0.45-0.39,1.02-0.59c1.34-0.65,2.46-0.97,3.34-0.97c0.57,0,1.19,0.28,1.85,0.83
		c0.48,0.21,0.95,0.64,1.4,1.28c0.68,1.17,1.02,2.57,1.02,4.21v0.22l-0.16,1.97l0.16,1.44l-0.25,1.28v0.04l0.02,0.24l0.96,0.04h0.42
		c0.28,0,0.45,0.03,0.53,0.1c-0.1,1.33-0.23,1.99-0.4,1.99c-0.31,0.21-0.68,0.32-1.09,0.32h-0.51c-0.78,0-1.62,0.12-2.54,0.36
		c-0.59-0.08-0.89-0.4-0.89-0.97l-0.04-0.95c0-0.62,0.14-1.07,0.42-1.34c0.15-0.87,0.33-1.68,0.55-2.45l0.16-2.43
		c0.04,0,0.05-0.2,0.05-0.61c0-0.47-0.36-1.18-1.07-2.11C8.75,9.63,8.43,9.5,8.33,9.5c-0.96,0-1.83,0.45-2.63,1.34
		c-0.06,0-0.47,0.45-1.22,1.34c-0.25,0.21-0.38,0.82-0.38,1.84c0.04,1.84,0.1,2.76,0.2,2.76c0.65,0.13,0.98,0.27,0.98,0.41v0.14
		l-0.54-0.06l-0.4,0.06v0.08c0,0.08,0.33,0.17,0.98,0.28c0.11,0.13,0.16,0.35,0.16,0.65v0.04c0,0.42-0.08,0.88-0.25,1.38l-2.92,0.06
		c-0.32,0-0.53-0.16-0.64-0.47c-0.09-0.37-0.16-1.04-0.24-2.01c0-0.11,0.25-0.22,0.76-0.34l0.13-0.18v-0.04
		c0-0.09-0.07-0.24-0.22-0.45l0.04-0.85v-1.56l0.09-2.53c0-1.72-0.07-2.59-0.22-2.59H1.88L0.7,8.99c-0.12,0-0.28-0.12-0.47-0.36
		v-0.1c0.09-0.12,0.13-0.27,0.13-0.45L0.32,7.07L0.7,5.83L0.77,5.77z M0.64,7.62v0.04c0,0.05,0.05,0.1,0.15,0.14
		c0.11,0,0.26-0.08,0.45-0.24V7.53H0.82C0.7,7.54,0.64,7.57,0.64,7.62z M0.82,6.66v0.08c0,0.05,0.13,0.09,0.38,0.1
		c1.1,0,1.65-0.08,1.65-0.24l0.09-0.18V6.36H2.89V6.32L0.82,6.66z M0.86,8.49v0.04h0.25l0.09-0.1V8.39L1.08,8.36
		C0.93,8.39,0.86,8.44,0.86,8.49z M1.33,7.35L1.4,7.43h0.05C1.68,7.4,1.79,7.36,1.79,7.29L1.68,7.25C1.45,7.25,1.33,7.28,1.33,7.35z
		 M1.55,7.98l0.49-0.04h0.09c0.16,0,0.25,0.05,0.29,0.14v0.08C2.34,8.25,2.29,8.34,2.29,8.43c0.1,0.07,0.2,0.1,0.31,0.1
		c0.05,0,0.07-0.03,0.07-0.1l0.02-0.91l-0.02-0.1H2.6C2.48,7.52,2.14,7.67,1.59,7.88L1.55,7.9V7.98z M1.79,17.52v0.04
		c0.02,0.34,0.14,0.51,0.35,0.51h0.13l0.09-0.1v-0.04c-0.17-0.18-0.25-0.35-0.25-0.49H1.84L1.79,17.52z M2.48,9.09l0.04,0.1h0.05
		l0.07-0.38H2.57C2.52,8.81,2.49,8.9,2.48,9.09z M2.89,18.72c0,0.09,0.22,0.14,0.67,0.14c0.82,0,1.23-0.05,1.23-0.14
		c0-0.12-0.28-0.18-0.84-0.18C3.31,18.54,2.95,18.6,2.89,18.72z M3.24,8.04L3.2,8.22v0.49c0,0.2-0.03,0.34-0.09,0.41v0.16l0.09,0.4
		l-0.02,0.2c0,0.14,0.05,0.25,0.15,0.32c0.04,0,0.09-0.21,0.16-0.63c0.23-0.18,0.35-0.34,0.35-0.47c0-0.09-0.09-0.29-0.27-0.59
		c-0.05-0.3-0.12-0.45-0.2-0.45H3.24z M3.58,9.78l0.04,0.18c0,0.14-0.07,0.28-0.22,0.41c0.08,0.09,0.13,0.18,0.13,0.28
		c0,0.92,0.05,1.38,0.16,1.38h0.05c0.11-0.3,0.16-0.73,0.16-1.28C3.9,10.06,3.83,9.7,3.69,9.68H3.66C3.61,9.68,3.58,9.71,3.58,9.78z
		 M4.26,8.3v0.1c0.24,0,0.5-0.16,0.76-0.49V7.88L4.98,7.84H4.97C4.78,7.84,4.55,7.99,4.26,8.3z M4.29,9.84v0.08
		c0.42-0.05,1.03-0.45,1.82-1.18V8.71H5.95c-0.08,0-0.28,0.12-0.6,0.38C4.64,9.35,4.29,9.6,4.29,9.84z M4.46,10.57l0.05,0.1
		l0.09-0.02v-0.08l-0.05-0.06H4.51L4.46,10.57z M5.06,10.47v0.04l0.05,0.06h0.11l0.05-0.32H5.22L5.06,10.47z M5.53,10.05v0.04H5.6
		C5.87,9.84,6,9.65,6,9.5H5.95V9.46C5.8,9.46,5.66,9.66,5.53,10.05z M5.75,7.6l0.04,0.02v0.04C5.93,7.61,6,7.57,6,7.53V7.49H5.95
		C5.81,7.51,5.75,7.55,5.75,7.6z M6.2,7.35l0.05,0.08c0.79-0.21,1.18-0.36,1.18-0.45V6.93H7.4c-0.4,0-0.8,0.13-1.2,0.39V7.35z
		 M6.33,9.74c0.36-0.09,0.54-0.2,0.54-0.32L6.8,9.36H6.74C6.5,9.36,6.36,9.49,6.33,9.74z M7.51,8.18v0.08h0.13
		c0.25-0.04,0.38-0.1,0.38-0.18V8.02H7.85C7.62,8.05,7.51,8.1,7.51,8.18z M7.91,6.84v0.04c0.12,0,0.33,0.11,0.62,0.34L8.8,7.29
		l0.8-0.04l0.04-0.04V7.15C9.6,7.06,9.5,7.01,9.34,7.01H9.25L9,7.07C8.62,6.82,8.36,6.7,8.2,6.7S7.94,6.74,7.91,6.84z M7.94,8.77
		l0.04,0.04h0.04c0.38,0,0.56-0.03,0.56-0.1L8.36,8.63C8.08,8.66,7.94,8.7,7.94,8.77z M8.83,9.28v0.08h0.64l0.07-0.08v-0.1
		l-0.11-0.1H9.31C8.99,9.15,8.83,9.22,8.83,9.28z M9.34,8.08c0,0.09,0.15,0.15,0.45,0.18C9.88,8.18,9.92,8.1,9.92,8.02
		c0-0.09-0.14-0.16-0.42-0.22C9.4,7.87,9.34,7.96,9.34,8.08z M9.56,20.14v0.06c0,0.12,0.22,0.18,0.67,0.18h0.13l0.22-0.04v-0.02
		c-0.18-0.18-0.45-0.28-0.82-0.28H9.67L9.56,20.14z M9.67,18.8v0.16l0.05,0.08H9.8l0.05-0.08v-0.02L9.72,18.8H9.67z M9.72,8.49
		L9.69,8.53v0.04L9.8,8.63h0.02l0.07-0.06L9.72,8.49z M10.23,8.02c0.02,0.09,0.09,0.14,0.2,0.14h0.15l0.11-0.12V8.02
		c-0.02-0.08-0.11-0.12-0.25-0.12h-0.11L10.23,8.02z M10.27,8.77v0.08c0,0.07,0.12,0.32,0.35,0.75c0,0.16,0.03,0.24,0.09,0.24
		l0.11-0.1V9.6c0-0.28-0.16-0.55-0.49-0.83H10.27z M10.27,19.51c0.06,0.14,0.16,0.22,0.29,0.22c0.91-0.04,1.36-0.1,1.36-0.18
		c-0.12-0.16-0.33-0.24-0.64-0.24C10.61,19.34,10.27,19.41,10.27,19.51z M10.56,16.17c0.08,0.13,0.13,0.3,0.13,0.51h0.05l0.07-0.32
		V15.9C10.64,15.9,10.56,15.99,10.56,16.17z M10.69,10.11v0.12c0.22,0.83,0.35,1.25,0.38,1.26l0.05-0.2v-0.24
		C10.99,10.43,10.84,10.11,10.69,10.11z M10.69,15.72l0.02,0.04h0.04c0.06-0.01,0.09-0.11,0.09-0.28v-0.32h-0.02
		C10.77,15.17,10.72,15.35,10.69,15.72z M11.54,17.83v0.1l0.09,0.1h0.04l0.05-0.06v-0.04l-0.09-0.1H11.54z M11.58,17.34v0.04h0.02
		l0.11-0.32V17h-0.04C11.61,17,11.58,17.11,11.58,17.34z M11.59,16.04h0.07v-0.12h-0.07V16.04z M11.63,13.75v0.04l0.09,0.34h0.13
		C11.84,13.87,11.76,13.75,11.63,13.75z M11.79,10.19c0.04,0.96,0.12,1.44,0.25,1.44h0.05c-0.06-0.96-0.15-1.44-0.27-1.44H11.79z
		 M12.23,16.04l-0.05,0.57v0.67h0.04c0.21-0.29,0.31-0.56,0.31-0.81v-0.02C12.52,16.17,12.42,16.04,12.23,16.04z M12.99,18.44v0.08
		c0.76-0.01,1.14-0.07,1.14-0.18v-0.08h-0.35C13.26,18.29,12.99,18.35,12.99,18.44z M13.23,19v0.1c0.02,0.09,0.1,0.14,0.22,0.14
		c0.28,0,0.45-0.07,0.51-0.2v-0.08c-0.04-0.09-0.13-0.14-0.29-0.14h-0.13C13.37,18.82,13.27,18.88,13.23,19z"/>
	<path fill="000000" style="opacity: 0.1;" d="M21.49,5c0.29,0,0.84,0.13,1.66,0.38c0.97,0.97,1.53,1.72,1.7,2.25c0.35,0.38,0.64,1.18,0.88,2.4
		c0.26,0.27,0.39,0.89,0.39,1.87l0.04,0.62l-0.09,2.61c0,0.5,0.3,1.16,0.91,1.97c0.55,0.57,0.91,0.85,1.09,0.85v0.04
		c0,0.21-0.29,0.56-0.88,1.02c-0.43,0.44-0.7,0.66-0.82,0.66h-0.02c-0.25-0.01-0.92-0.53-2-1.55c-0.97,0.38-1.95,0.79-2.95,1.25
		c-0.66,0.2-1.38,0.3-2.18,0.3h-0.12c-0.91-0.16-1.67-0.53-2.29-1.1c-0.11-0.11-0.35-0.56-0.72-1.32c-0.3-0.38-0.45-0.85-0.45-1.42
		v-0.76c0-0.48,0.13-0.93,0.38-1.36c0.23-0.69,0.6-1.37,1.13-2.04c0.26-0.34,0.52-0.56,0.79-0.64c0.87-0.48,1.72-0.72,2.56-0.72
		l1.13-0.04h0.13c0.66,0,1.11,0.1,1.36,0.3h0.14c0.07,0,0.11-0.04,0.11-0.13c-0.17-0.8-0.46-1.58-0.88-2.36
		c-0.36-0.64-1.04-0.97-2.04-0.97l-1-0.13c-0.88,0.18-1.32,0.37-1.32,0.57C17.77,8,17.56,8.59,17.48,9.31
		c-0.04,0.09-0.33,0.13-0.89,0.13l-0.16,0.04c-0.06,0-0.14,0.15-0.25,0.45c-0.47-0.08-0.7-0.18-0.7-0.3
		c0.06-0.15,0.13-0.79,0.2-1.91c0.26-0.8,0.89-1.53,1.88-2.21c0.48-0.29,0.76-0.44,0.84-0.44L21.49,5z M16.59,8.7v0.4h0.02
		c0.07-0.01,0.11-0.08,0.11-0.19V8.7l-0.07-0.06L16.59,8.7z M16.86,6.76h0.04c0.14,0,0.36-0.16,0.66-0.49V6.17h-0.04
		c-0.15,0-0.38,0.18-0.66,0.55V6.76z M18.48,0.27c0.5,0.09,0.85,0.23,1.06,0.43c0.07,0.15,0.11,0.3,0.11,0.45v0.38
		c0,0.71-0.39,1.29-1.16,1.76l-0.32,0.13c-0.35,0-0.68-0.4-1-1.21V2.08c0-0.76,0.12-1.22,0.36-1.38C17.98,0.41,18.3,0.27,18.48,0.27
		z M17.18,17.29v0.04l0.05,0.06h0.13v-0.06l-0.09-0.09h-0.04L17.18,17.29z M17.23,18.69v0.02c0.08,0.18,0.5,0.38,1.25,0.61
		c0.27,0.13,0.6,0.19,0.98,0.19v-0.02c0-0.08-0.32-0.18-0.95-0.3c-0.41-0.15-0.78-0.34-1.13-0.57H17.3L17.23,18.69z M17.55,11.96
		v0.11h0.05c0.12,0,0.2-0.06,0.25-0.17v-0.08h-0.02L17.55,11.96z M17.55,14.32c0.11,1.06,0.24,1.59,0.41,1.59l0.25,0.32v0.04
		l-0.23-0.04v0.08c0.35,0.44,1,0.87,1.95,1.29c0.13,0.06,0.3,0.11,0.5,0.13c0.33,0,1.48-0.51,3.43-1.53c0.13-0.08,0.2-0.18,0.2-0.3
		v-0.13c-0.14-0.71-0.27-1.55-0.38-2.52l-0.04-0.02c0-0.19-0.18-0.35-0.55-0.47c-1.22-0.37-2.05-0.55-2.5-0.55
		c-1.24,0.3-2.11,0.74-2.61,1.32C17.7,13.86,17.55,14.12,17.55,14.32z M17.66,1.42c0.05,0.47,0.11,0.7,0.2,0.7
		c0.05-0.02,0.12-0.33,0.21-0.93l0.09-0.17V0.93h-0.02C17.82,1.04,17.66,1.21,17.66,1.42z M17.79,2.59c0,0.1,0.05,0.18,0.16,0.23
		h0.29c0.18,0,0.35-0.1,0.5-0.3V2.48L17.79,2.59z M18.32,1.59v0.08c0,0.16,0.04,0.26,0.13,0.28h0.04c0.08,0,0.18-0.18,0.29-0.55
		V1.27L18.7,1.19h-0.05C18.45,1.19,18.35,1.32,18.32,1.59z M19.07,1.95l0.04,0.04h0.09l0.04-0.17V1.76H19.2
		C19.16,1.76,19.12,1.82,19.07,1.95z M19.09,5.87v0.06c0.01,0.08,0.1,0.11,0.25,0.11c0.16,0,0.36-0.06,0.63-0.17v-0.1h-0.11
		C19.51,5.77,19.26,5.8,19.09,5.87z M19.93,18.32c0.04,0.09,0.11,0.13,0.22,0.13c0.17-0.01,0.25-0.06,0.25-0.13V18.3l-0.05-0.08
		h-0.32L19.93,18.32z M20.18,6.62l0.09,0.13h0.32l0.05-0.06V6.66l-0.13-0.13h-0.21L20.18,6.62z M21.11,5.6l0.11,0.09h0.13l0.05-0.06
		l-0.09-0.11h-0.12L21.11,5.6z M22.81,0.4c0.5,0.09,0.86,0.23,1.07,0.44c0.06,0.15,0.09,0.3,0.09,0.45v0.38
		c0,0.71-0.39,1.29-1.16,1.76l-0.3,0.13c-0.35,0-0.68-0.4-1-1.21V2.21c0-0.76,0.11-1.22,0.34-1.38C22.31,0.54,22.63,0.4,22.81,0.4z
		 M21.99,17.96v0.04h0.13c0.24,0,0.54-0.1,0.91-0.3v-0.04h-0.09C22.37,17.74,22.05,17.84,21.99,17.96z M22.01,1.55
		c0.05,0.47,0.11,0.7,0.18,0.7c0.05-0.03,0.13-0.33,0.23-0.93l0.09-0.17V1.06h-0.04C22.16,1.17,22.01,1.34,22.01,1.55z M22.13,2.72
		c0,0.1,0.05,0.18,0.16,0.23h0.27c0.19,0,0.36-0.1,0.5-0.3V2.61L22.13,2.72z M22.67,1.72V1.8c0,0.16,0.04,0.26,0.13,0.28h0.02
		c0.1,0,0.19-0.18,0.29-0.55V1.4l-0.05-0.08h-0.07C22.78,1.32,22.68,1.46,22.67,1.72z M23.03,5.73v0.06C23.15,5.93,23.26,6,23.37,6
		h0.04V5.92c-0.12-0.13-0.23-0.19-0.34-0.19H23.03z M23.42,2.08l0.02,0.04h0.11l0.02-0.17V1.89h-0.02
		C23.5,1.89,23.46,1.96,23.42,2.08z M24.23,14.74v0.13l0.09,0.11h0.04l0.09-0.11v-0.13l-0.07-0.06h-0.09L24.23,14.74z M24.28,13.85
		l0.07,0.1l0.09-0.02v-0.08l-0.07-0.06h-0.02L24.28,13.85z M24.98,12.56v0.09h0.05v-0.04L24.98,12.56z M25,13.13v0.09l0.07,0.06
		l0.05-0.06v-0.09H25z M25.03,11.73v0.08c0.07,0.26,0.14,0.4,0.22,0.4h0.04c0-0.23-0.05-0.4-0.16-0.53H25.1L25.03,11.73z
		 M25.16,13.85v0.04c0.02,0.66,0.09,0.98,0.2,0.98l0.05-0.06v-0.04c0-0.35-0.05-0.66-0.16-0.93H25.16z M25.53,17.65
		c0.05,0.13,0.11,0.21,0.2,0.25h0.02l0.11-0.11v-0.06l-0.13-0.13H25.6L25.53,17.65z M25.66,10.75v0.06
		c0.01,0.14,0.04,0.21,0.09,0.21l0.04-0.13c-0.04-0.09-0.07-0.13-0.09-0.13H25.66z M26.1,18.13v0.06l0.09,0.11h0.13l0.05-0.08v-0.04
		l-0.13-0.13h-0.09L26.1,18.13z M26.32,17.16v0.17c0.06,0.22,0.13,0.32,0.21,0.32h0.07V17.6c-0.07-0.29-0.15-0.43-0.23-0.43H26.32z"
		/>
	<path fill="000000" style="opacity: 0.1;" d="M38.82,7.25c0.67,0,1.23,0.51,1.69,1.54c0.1,0,0.22,0.12,0.37,0.36l0.35,2.06c-0.15,0.21-0.61,0.32-1.37,0.32
		h-0.26c-0.64-0.09-0.96-0.33-0.96-0.7c0-0.27-0.2-0.62-0.59-1.06c-0.05-0.09-0.41-0.14-1.09-0.14s-1.47,0.19-2.37,0.56
		c-0.62,0.68-1.05,1.25-1.3,1.72c0.12,3.36,0.17,5.35,0.13,5.96c0,0.16,0.11,0.24,0.32,0.24h0.63c0.27,0.01,0.41,0.06,0.41,0.14
		v0.04l0.09,0.38l-0.06,1.54l-0.15,0.22l-1.2,0.12h-0.11l-0.52,0.18c-1.96-0.07-2.94-0.15-2.94-0.24c-0.35,0-0.52-0.17-0.52-0.5
		c-0.04-0.25-0.06-0.6-0.06-1.04c0-0.35,0.33-0.58,1-0.7c0-0.15,0.23-0.22,0.69-0.22l0.09-0.02v-0.04l-0.17-7.6
		c0-0.47-0.11-0.7-0.31-0.7h-0.17c-0.21,0-0.56,0.09-1.04,0.28l-0.04-0.04V9.85c0-0.04,0.07-0.09,0.2-0.14V9.67
		c-0.17,0-0.26-0.53-0.26-1.58c-0.02,0-0.05-0.16-0.07-0.48c0.7-0.59,1.42-0.88,2.15-0.88h0.65c0.22,0,0.65,0.09,1.3,0.28l0.04,0.1
		c-0.16,0.23-0.24,0.41-0.24,0.56v0.18C34.5,7.17,36.4,6.97,38.82,7.25z M29.65,19.47l-0.07,0.1v0.12l0.07,0.06h0.09v-0.18
		L29.65,19.47z M29.91,7.81c0.1,0.15,0.24,0.22,0.43,0.22l0.04-0.04v-0.2l-0.13-0.12C30.02,7.7,29.91,7.75,29.91,7.81z M30.21,19.89
		v0.04c0,0.09,0.25,0.14,0.74,0.14h0.78l0.17-0.04c0-0.09-0.46-0.16-1.37-0.2L30.21,19.89z M30.3,8.91v0.06h0.09
		c0.17,0,0.27-0.05,0.3-0.14l-0.06-0.06h-0.04C30.42,8.77,30.32,8.82,30.3,8.91z M30.3,19.47l0.04,0.04h1.43v-0.08l-0.89-0.02h-0.52
		L30.3,19.47z M30.98,7.25v0.14l0.17,0.18h0.22V7.51l-0.3-0.26H30.98z M32.08,11.45v0.14c0.09,0.16,0.13,0.36,0.13,0.6
		c-0.04,0.08-0.07,0.45-0.09,1.12l0.07,1.12h0.02c0.07,0,0.14-0.85,0.2-2.56c0.04,0,0.06-0.19,0.06-0.58
		c-0.02-0.17-0.07-0.26-0.13-0.26h-0.06C32.14,11.13,32.08,11.27,32.08,11.45z M32.28,9.99l-0.13,0.56c0,0.12,0.06,0.21,0.17,0.28
		h0.02c0.07,0,0.12-0.13,0.13-0.38l-0.09-0.46H32.28z M32.5,19.61l0.06,0.08h0.39l0.11-0.12c0-0.05-0.04-0.09-0.13-0.1
		C32.64,19.5,32.5,19.55,32.5,19.61z M32.67,7.89v0.04l0.06,0.06l0.11-0.1v-0.1h-0.07L32.67,7.89z M32.72,7.33v0.14h0.11l0.09-0.1
		V7.33l-0.09-0.04L32.72,7.33z M32.72,16.63v0.22h0.09l0.11-0.1v-0.14l-0.07-0.08h-0.04L32.72,16.63z M32.76,17.27h0.06v-0.1h-0.06
		V17.27z M33.24,9.11v0.08l0.07,0.06h0.09l0.07-0.06V9.11l-0.13-0.04L33.24,9.11z M35,8.45v0.06c0.15,0,0.35-0.27,0.59-0.8V7.57
		h-0.02C35.12,7.71,34.93,8,35,8.45z M35.96,7.85l0.11,0.56h0.22l-0.02-0.6l-0.06-0.08h-0.07C36.03,7.76,35.96,7.8,35.96,7.85z
		 M36.58,7.63v0.04l0.06,0.06h0.26c0.11,0,0.18-0.03,0.2-0.1l-0.04-0.04h-0.17L36.58,7.63z M37.41,7.57v0.06h0.17l0.09-0.1
		l-0.06-0.08C37.48,7.48,37.41,7.52,37.41,7.57z M38.06,7.73v0.04h0.11l0.06-0.06V7.67h-0.09L38.06,7.73z M38.3,9.35h0.11
		c0.11-0.04,0.28-0.26,0.52-0.66V8.65c0-0.04-0.04-0.06-0.11-0.06c-0.3,0.13-0.44,0.33-0.44,0.6C38.34,9.19,38.31,9.25,38.3,9.35z
		 M39.02,10.09v0.08h0.06l0.11-0.12V9.99h-0.04C39.06,10.03,39.02,10.07,39.02,10.09z M39.04,7.63v0.04l0.06,0.06h0.11l0.06-0.06
		V7.63l-0.06-0.06h-0.11L39.04,7.63z M39.84,8.55v0.08c0.1,0.16,0.22,0.24,0.35,0.24h0.06V8.79c-0.11-0.16-0.23-0.24-0.35-0.24
		H39.84z"/>
	<path fill="000000" style="opacity: 0.1;" d="M48.43,4.73c0.3,0,0.87,0.13,1.72,0.39c1,0.99,1.58,1.76,1.75,2.3c0.36,0.39,0.66,1.2,0.9,2.46
		c0.27,0.27,0.41,0.91,0.41,1.91l0.04,0.64l-0.09,2.67c0,0.52,0.31,1.19,0.94,2.01c0.57,0.58,0.94,0.87,1.13,0.87v0.04
		c0,0.22-0.3,0.57-0.91,1.04c-0.44,0.45-0.73,0.68-0.85,0.68h-0.02c-0.26-0.01-0.95-0.54-2.07-1.58c-1,0.39-2.01,0.81-3.05,1.28
		c-0.68,0.21-1.43,0.31-2.25,0.31h-0.13c-0.94-0.17-1.72-0.54-2.36-1.12c-0.11-0.12-0.36-0.57-0.74-1.35
		c-0.31-0.39-0.46-0.87-0.46-1.45v-0.77c0-0.49,0.13-0.95,0.39-1.39c0.23-0.71,0.62-1.4,1.16-2.09c0.27-0.35,0.54-0.57,0.81-0.66
		c0.9-0.49,1.78-0.73,2.64-0.73l1.16-0.04h0.13c0.68,0,1.14,0.1,1.4,0.31h0.15c0.07,0,0.11-0.04,0.11-0.14
		c-0.17-0.81-0.47-1.62-0.91-2.42c-0.37-0.66-1.07-0.99-2.1-0.99l-1.03-0.14c-0.91,0.18-1.37,0.37-1.37,0.58
		c-0.34,0.46-0.56,1.06-0.65,1.8c-0.04,0.09-0.35,0.13-0.92,0.13L43.2,9.32c-0.06,0-0.15,0.15-0.26,0.46
		c-0.48-0.08-0.72-0.18-0.72-0.31c0.06-0.15,0.13-0.81,0.2-1.95c0.27-0.81,0.92-1.57,1.94-2.26c0.49-0.3,0.78-0.45,0.87-0.45
		L48.43,4.73z M43.37,8.52v0.41h0.02c0.07-0.01,0.11-0.08,0.11-0.19V8.52l-0.07-0.06L43.37,8.52z M43.65,6.53h0.04
		c0.15,0,0.38-0.17,0.68-0.5v-0.1h-0.04c-0.16,0-0.39,0.19-0.68,0.56V6.53z M43.98,17.3v0.04l0.06,0.06h0.13v-0.06l-0.09-0.1h-0.04
		L43.98,17.3z M44.03,18.73v0.02c0.09,0.18,0.52,0.39,1.29,0.62c0.28,0.13,0.62,0.19,1.02,0.19v-0.02c0-0.08-0.33-0.18-0.98-0.31
		c-0.42-0.15-0.81-0.35-1.16-0.58h-0.09L44.03,18.73z M44.37,11.85v0.12h0.06c0.12,0,0.21-0.06,0.26-0.17v-0.08h-0.02L44.37,11.85z
		 M44.37,14.26c0.11,1.08,0.25,1.62,0.42,1.62l0.26,0.33v0.04l-0.24-0.04v0.08c0.36,0.45,1.03,0.89,2.01,1.31
		c0.14,0.06,0.31,0.11,0.52,0.14c0.34,0,1.53-0.52,3.55-1.57c0.13-0.08,0.2-0.18,0.2-0.31v-0.14c-0.15-0.72-0.28-1.58-0.39-2.57
		l-0.04-0.02c0-0.19-0.19-0.35-0.57-0.48c-1.26-0.37-2.12-0.56-2.59-0.56c-1.28,0.31-2.18,0.76-2.7,1.35
		C44.51,13.79,44.37,14.06,44.37,14.26z M45.95,5.62v0.06c0.01,0.08,0.1,0.12,0.26,0.12c0.16,0,0.38-0.06,0.65-0.17v-0.1h-0.11
		C46.39,5.53,46.13,5.56,45.95,5.62z M46.82,18.34c0.04,0.09,0.11,0.14,0.22,0.14c0.17-0.01,0.26-0.06,0.26-0.14v-0.02l-0.05-0.08
		h-0.33L46.82,18.34z M47.08,6.4l0.09,0.14h0.33l0.06-0.06V6.44L47.43,6.3h-0.22L47.08,6.4z M48.04,5.35l0.11,0.1h0.13l0.06-0.06
		l-0.09-0.12h-0.13L48.04,5.35z M48.95,17.98v0.04h0.13c0.25,0,0.56-0.1,0.94-0.31v-0.04h-0.09C49.33,17.76,49.01,17.86,48.95,17.98
		z M50.02,5.49v0.06c0.12,0.14,0.24,0.21,0.35,0.21h0.04V5.68c-0.12-0.13-0.24-0.19-0.35-0.19H50.02z M51.25,14.69v0.14l0.09,0.12
		h0.04l0.09-0.12v-0.14l-0.07-0.06h-0.09L51.25,14.69z M51.31,13.78l0.07,0.1l0.09-0.02v-0.08l-0.07-0.06h-0.02L51.31,13.78z
		 M52.03,12.47v0.1h0.06v-0.04L52.03,12.47z M52.05,13.05v0.1l0.07,0.06l0.06-0.06v-0.1H52.05z M52.08,11.62v0.08
		c0.07,0.27,0.15,0.41,0.22,0.41h0.04c0-0.23-0.06-0.41-0.17-0.54h-0.02L52.08,11.62z M52.21,13.78v0.04
		c0.02,0.67,0.09,1.01,0.2,1.01l0.06-0.06v-0.04c0-0.36-0.06-0.68-0.17-0.95H52.21z M52.6,17.67c0.05,0.13,0.12,0.21,0.2,0.25h0.02
		l0.11-0.12v-0.06l-0.13-0.14h-0.13L52.6,17.67z M52.73,10.61v0.06c0.01,0.14,0.04,0.21,0.09,0.21l0.04-0.14
		c-0.04-0.09-0.07-0.14-0.09-0.14H52.73z M53.19,18.15v0.06l0.09,0.12h0.13l0.06-0.08v-0.04l-0.13-0.14h-0.09L53.19,18.15z
		 M53.41,17.16v0.17c0.06,0.22,0.14,0.33,0.22,0.33h0.07v-0.06c-0.07-0.3-0.15-0.44-0.24-0.44H53.41z"/>
	<path fill="000000" style="opacity: 0.1;" d="M62.02,4.73c0.2,0.16,0.55,0.28,1.05,0.37c0.35,0,1.08,0.4,2.18,1.19l0.36,0.11h0.13l0.47,0.22
		c0.46,0.35,0.73,0.61,0.79,0.78v0.04c0,0.1-0.1,0.23-0.3,0.39c-0.05,0.27-0.41,0.84-1.09,1.69v0.09l0.04,0.26
		c-0.24,0.02-0.49,0.09-0.75,0.19c-0.11,0-0.21-0.12-0.3-0.35c-0.49-0.3-0.73-0.55-0.73-0.74l0.3-0.82c0-0.33-0.57-0.57-1.71-0.71
		l-1.71-0.11c-0.59,0-1.39,0.23-2.41,0.69c-0.57,0.3-1,0.91-1.32,1.82c-0.26,0.84-0.47,1.33-0.62,1.47l-0.26-0.2
		c-0.13,0.15-0.19,0.35-0.19,0.59h0.02l0.34-0.17c0.05,0,0.08,0.06,0.09,0.17l-0.17,1.17c0.08,0.04,0.24,0.55,0.51,1.54l-0.09,0.17
		v0.09c0.09,0.09,0.16,0.37,0.21,0.86c0.15,0.51,0.65,0.97,1.51,1.39l1.39,1c1.53,0,2.89-0.33,4.08-1c1.18-1,1.77-1.67,1.77-2.01
		l-0.09-0.39v-0.04c0.01-0.07,0.4-0.49,1.15-1.25c0.05,0,0.19,0.13,0.43,0.39v0.07l-0.13,0.04l-0.21-0.04h-0.02v0.09
		c0.65,0.06,0.98,0.24,0.98,0.52c0.29,0.38,0.58,0.94,0.88,1.65c0.09,0,0.17,0.2,0.24,0.59c0.23,0.1,0.36,0.2,0.4,0.3
		c0,0.15-0.11,0.24-0.34,0.26c-0.41,0.15-0.78,0.43-1.11,0.84c-0.6-0.61-0.92-0.91-0.96-0.91l-1.45,0.91
		c-0.48,0.25-0.92,0.53-1.32,0.86l-2.71,0.87l-0.41,0.04c-0.58,0-1.4-0.17-2.48-0.5c-1.18-0.5-1.83-0.89-1.94-1.17
		c-1.47-1.72-2.2-3.07-2.2-4.03l-0.08-0.87c0.15-0.61,0.23-1.35,0.23-2.23l0.7-1.65c0-0.48,0.33-1.1,0.98-1.86
		c0.36-0.79,1.32-1.53,2.86-2.21c0.63-0.2,1.64-0.34,3.03-0.43V4.73z M55.15,12.89v0.09c0,0.17,0.08,0.27,0.24,0.3
		c0.1,0,0.11-0.28,0.04-0.84l-0.02-0.13h-0.08C55.27,12.32,55.21,12.51,55.15,12.89z M56.13,9.53l-0.45,0.8v0.13l0.09,0.11h0.06
		c0.1,0,0.23-0.28,0.4-0.86V9.53H56.13z M55.94,13.36c-0.09,0.09-0.13,0.22-0.13,0.41c0,0.1,0.08,0.27,0.24,0.52
		c0.09,0.29,0.22,0.43,0.39,0.43v-0.06c0-0.27-0.16-0.71-0.47-1.3H55.94z M55.84,15.4v0.13c0.1,0.17,0.21,0.26,0.34,0.26
		c0-0.12-0.09-0.25-0.26-0.39H55.84z M55.97,16.63v0.04c0,0.26,0.28,0.53,0.83,0.82h0.23v-0.04c0-0.2-0.31-0.47-0.92-0.82H55.97z
		 M56.07,8.97v0.04l0.06,0.06h0.04c0.2-0.15,0.3-0.29,0.3-0.43V8.58h-0.08C56.18,8.71,56.07,8.84,56.07,8.97z M56.44,15.98v0.13
		c0.06,0.16,0.16,0.24,0.28,0.24h0.04v-0.11C56.68,16.07,56.57,15.98,56.44,15.98z M56.88,7.97h0.08c0.24-0.15,0.36-0.29,0.36-0.43
		C57.12,7.54,56.98,7.68,56.88,7.97z M56.93,17.88c0.15,0.25,0.78,0.64,1.88,1.17l0.55,0.17h0.04V19.1
		c-1.1-0.46-1.78-0.85-2.03-1.19c-0.1-0.09-0.19-0.13-0.26-0.13h-0.11C56.95,17.78,56.93,17.81,56.93,17.88z M57.14,6.56v0.07h0.08
		l0.13-0.13V6.46h-0.09L57.14,6.56z M57.65,6.3l1.34-0.52l0.87-0.39c0.33-0.06,0.49-0.12,0.49-0.19V5.16c-0.75,0-1.64,0.33-2.67,1
		L57.65,6.2V6.3z M57.82,17.78v0.02c0,0.14,0.32,0.31,0.96,0.52l1.28,0.39h0.26l0.09-0.09v-0.06H60.4c-0.36,0-0.68-0.12-0.96-0.37
		L59,18.04h-0.04l-0.15,0.13h-0.04c-0.13,0-0.41-0.13-0.87-0.39H57.82z M58.2,7.28v0.04h0.11l0.09-0.11l-0.08-0.06L58.2,7.28z
		 M59.16,6.67v0.09h0.09c0.4-0.07,0.6-0.16,0.6-0.26l-0.08-0.07h-0.06C59.34,6.54,59.16,6.62,59.16,6.67z M60.15,6.15v0.13
		l0.32,0.06c1,0,1.57-0.09,1.71-0.26c0-0.05-0.14-0.08-0.43-0.09C60.92,6.02,60.39,6.07,60.15,6.15z M60.6,6.93l0.26,0.06h0.04
		c0.56-0.02,0.86-0.09,0.88-0.19V6.72h-0.3C60.9,6.72,60.6,6.79,60.6,6.93z M60.94,19.36v0.04c0,0.1,0.18,0.15,0.53,0.17v-0.09
		l-0.02-0.04l0.09-0.09l-0.09-0.11h-0.17C61.06,19.26,60.94,19.3,60.94,19.36z M62.32,6.76V6.8c0,0.06,0.23,0.11,0.7,0.15V6.89
		l-0.47-0.13H62.32z M62.39,18.23v0.04h0.04c0.16,0,0.26-0.04,0.3-0.13V18.1C62.51,18.12,62.39,18.17,62.39,18.23z M62.41,6.15V6.2
		c0,0.1,0.18,0.16,0.53,0.17l0.08-0.07c0-0.1-0.1-0.15-0.3-0.15H62.41z M62.62,5.33l-0.04,0.04v0.06l0.08,0.07h0.13V5.37L62.62,5.33
		z M63.13,18.62h0.04c0.36-0.11,0.67-0.28,0.92-0.52v-0.04h-0.04C63.89,18.06,63.58,18.25,63.13,18.62z M63.24,6.37v0.06l0.09,0.11
		h0.08V6.46l-0.09-0.09H63.24z M63.52,17.65l0.04,0.02h0.02c0.44-0.17,0.66-0.35,0.66-0.54h-0.02c-0.49,0.22-0.73,0.4-0.73,0.52
		H63.52z M64.63,7.08v0.11h0.06l0.08-0.07V7.08H64.63z M65.1,16.37h0.06c0.1-0.04,0.21-0.15,0.34-0.35v-0.06
		C65.32,15.96,65.19,16.1,65.1,16.37z M66.04,7.71v0.02l0.17,0.04h0.02l0.13-0.13V7.5l-0.06-0.06C66.13,7.45,66.04,7.53,66.04,7.71z
		 M66.78,15.07v0.04c0.13,0.37,0.24,0.56,0.34,0.56l0.06-0.07V15.5C67.08,15.21,66.95,15.07,66.78,15.07z M67.3,14.55v0.11
		c0,0.2,0.33,0.85,1,1.97l0.15,0.04l0.08-0.09c-0.26-0.45-0.51-0.98-0.75-1.6l-0.38-0.43H67.3z M67.44,17.19v0.13l0.08,0.07h0.15
		c0.06,0,0.19-0.12,0.4-0.37V17c0-0.05-0.15-0.12-0.45-0.2C67.49,16.8,67.44,16.93,67.44,17.19z"/>
	<path fill="000000" style="opacity: 0.1;" d="M76.43,4.73c0.3,0,0.87,0.13,1.72,0.39c1,0.99,1.58,1.76,1.75,2.3c0.36,0.39,0.66,1.2,0.9,2.46
		c0.27,0.27,0.41,0.91,0.41,1.91l0.04,0.64l-0.09,2.67c0,0.52,0.31,1.19,0.94,2.01c0.57,0.58,0.94,0.87,1.13,0.87v0.04
		c0,0.22-0.3,0.57-0.91,1.04c-0.44,0.45-0.73,0.68-0.85,0.68h-0.02c-0.26-0.01-0.95-0.54-2.07-1.58c-1,0.39-2.01,0.81-3.05,1.28
		c-0.68,0.21-1.43,0.31-2.25,0.31h-0.13c-0.94-0.17-1.72-0.54-2.36-1.12c-0.11-0.12-0.36-0.57-0.74-1.35
		c-0.31-0.39-0.46-0.87-0.46-1.45v-0.77c0-0.49,0.13-0.95,0.39-1.39c0.23-0.71,0.62-1.4,1.16-2.09c0.27-0.35,0.54-0.57,0.81-0.66
		c0.9-0.49,1.78-0.73,2.64-0.73l1.16-0.04h0.13c0.68,0,1.14,0.1,1.4,0.31h0.15c0.07,0,0.11-0.04,0.11-0.14
		c-0.17-0.81-0.47-1.62-0.91-2.42c-0.37-0.66-1.07-0.99-2.1-0.99l-1.03-0.14c-0.91,0.18-1.37,0.37-1.37,0.58
		c-0.35,0.46-0.56,1.06-0.65,1.8c-0.04,0.09-0.34,0.13-0.92,0.13L71.2,9.32c-0.06,0-0.15,0.15-0.26,0.46
		c-0.48-0.08-0.72-0.18-0.72-0.31c0.06-0.15,0.13-0.81,0.2-1.95c0.27-0.81,0.92-1.57,1.94-2.26c0.49-0.3,0.78-0.45,0.87-0.45
		L76.43,4.73z M71.37,8.52v0.41h0.02c0.07-0.01,0.11-0.08,0.11-0.19V8.52l-0.07-0.06L71.37,8.52z M71.65,6.53h0.04
		c0.15,0,0.38-0.17,0.68-0.5v-0.1h-0.04c-0.16,0-0.39,0.19-0.68,0.56V6.53z M71.98,17.3v0.04l0.06,0.06h0.13v-0.06l-0.09-0.1h-0.04
		L71.98,17.3z M72.03,18.73v0.02c0.09,0.18,0.52,0.39,1.29,0.62c0.28,0.13,0.62,0.19,1.02,0.19v-0.02c0-0.08-0.33-0.18-0.98-0.31
		c-0.42-0.15-0.81-0.35-1.16-0.58h-0.09L72.03,18.73z M72.37,11.85v0.12h0.06c0.12,0,0.21-0.06,0.26-0.17v-0.08h-0.02L72.37,11.85z
		 M72.37,14.26c0.11,1.08,0.25,1.62,0.42,1.62l0.26,0.33v0.04l-0.24-0.04v0.08c0.36,0.45,1.03,0.89,2.01,1.31
		c0.14,0.06,0.31,0.11,0.52,0.14c0.34,0,1.53-0.52,3.55-1.57c0.13-0.08,0.2-0.18,0.2-0.31v-0.14c-0.15-0.72-0.28-1.58-0.39-2.57
		l-0.04-0.02c0-0.19-0.19-0.35-0.57-0.48c-1.26-0.37-2.12-0.56-2.58-0.56c-1.28,0.31-2.18,0.76-2.7,1.35
		C72.51,13.79,72.37,14.06,72.37,14.26z M73.95,5.62v0.06c0.01,0.08,0.1,0.12,0.26,0.12c0.16,0,0.38-0.06,0.65-0.17v-0.1h-0.11
		C74.39,5.53,74.13,5.56,73.95,5.62z M74.82,18.34c0.04,0.09,0.11,0.14,0.22,0.14c0.17-0.01,0.26-0.06,0.26-0.14v-0.02l-0.06-0.08
		h-0.33L74.82,18.34z M75.08,6.4l0.09,0.14h0.33l0.05-0.06V6.44L75.43,6.3h-0.22L75.08,6.4z M76.04,5.35l0.11,0.1h0.13l0.06-0.06
		l-0.09-0.12h-0.13L76.04,5.35z M76.95,17.98v0.04h0.13c0.25,0,0.56-0.1,0.94-0.31v-0.04h-0.09C77.33,17.76,77.01,17.86,76.95,17.98
		z M78.02,5.49v0.06c0.12,0.14,0.24,0.21,0.35,0.21h0.04V5.68c-0.12-0.13-0.24-0.19-0.35-0.19H78.02z M79.25,14.69v0.14l0.09,0.12
		h0.04l0.09-0.12v-0.14l-0.07-0.06h-0.09L79.25,14.69z M79.31,13.78l0.07,0.1l0.09-0.02v-0.08l-0.07-0.06h-0.02L79.31,13.78z
		 M80.03,12.47v0.1h0.06v-0.04L80.03,12.47z M80.05,13.05v0.1l0.07,0.06l0.06-0.06v-0.1H80.05z M80.08,11.62v0.08
		c0.07,0.27,0.15,0.41,0.22,0.41h0.04c0-0.23-0.06-0.41-0.17-0.54h-0.02L80.08,11.62z M80.21,13.78v0.04
		c0.02,0.67,0.09,1.01,0.2,1.01l0.06-0.06v-0.04c0-0.36-0.06-0.68-0.17-0.95H80.21z M80.6,17.67c0.05,0.13,0.12,0.21,0.2,0.25h0.02
		l0.11-0.12v-0.06l-0.13-0.14h-0.13L80.6,17.67z M80.73,10.61v0.06c0.01,0.14,0.04,0.21,0.09,0.21l0.04-0.14
		c-0.04-0.09-0.07-0.14-0.09-0.14H80.73z M81.19,18.15v0.06l0.09,0.12h0.13l0.06-0.08v-0.04l-0.13-0.14h-0.09L81.19,18.15z
		 M81.41,17.16v0.17c0.06,0.22,0.14,0.33,0.22,0.33h0.07v-0.06c-0.07-0.3-0.15-0.44-0.24-0.44H81.41z"/>
	<path fill="000000" style="opacity: 0.1;" d="M82.79,5.73c0.44,0.06,0.86,0.09,1.25,0.09h2.15l0.06,0.07c-0.09,0.32-0.13,0.57-0.13,0.74v0.44
		c0.06,0.48,0.19,0.72,0.4,0.72c0.11-0.18,0.47-0.37,1.06-0.55c1.4-0.6,2.56-0.9,3.48-0.9c0.59,0,1.23,0.26,1.93,0.78
		c0.5,0.2,0.99,0.6,1.45,1.2c0.71,1.1,1.06,2.41,1.06,3.93v0.2l-0.17,1.85l0.17,1.35l-0.26,1.2v0.04l0.02,0.22l1,0.04h0.43
		c0.29,0,0.47,0.03,0.55,0.09c-0.1,1.24-0.24,1.87-0.42,1.87c-0.33,0.2-0.71,0.3-1.13,0.3h-0.53c-0.81,0-1.69,0.11-2.64,0.33
		c-0.62-0.07-0.93-0.38-0.93-0.9l-0.04-0.89c0-0.58,0.14-1,0.43-1.26c0.15-0.81,0.34-1.58,0.57-2.29l0.17-2.27
		c0.04,0,0.06-0.19,0.06-0.57c0-0.44-0.37-1.1-1.11-1.98c-0.55-0.23-0.89-0.35-1-0.35c-1,0-1.91,0.42-2.74,1.26
		c-0.06,0-0.49,0.42-1.27,1.26c-0.26,0.2-0.4,0.77-0.4,1.72c0.04,1.72,0.11,2.59,0.21,2.59c0.68,0.12,1.02,0.25,1.02,0.39v0.13
		l-0.57-0.06l-0.42,0.06v0.07c0,0.07,0.34,0.16,1.02,0.26c0.11,0.12,0.17,0.33,0.17,0.61v0.04c0,0.39-0.09,0.82-0.26,1.29
		l-3.04,0.05c-0.33,0-0.55-0.15-0.66-0.44c-0.09-0.34-0.17-0.97-0.25-1.88c0-0.1,0.26-0.2,0.79-0.31l0.13-0.17v-0.04
		c0-0.09-0.08-0.23-0.23-0.42l0.04-0.79v-1.46L84.3,11c0-1.61-0.08-2.42-0.23-2.42h-0.13l-1.23,0.17c-0.13,0-0.29-0.11-0.49-0.33
		V8.32c0.09-0.11,0.13-0.25,0.13-0.42l-0.04-0.94l0.4-1.16L82.79,5.73z M82.66,7.47v0.04c0,0.05,0.05,0.09,0.15,0.13
		c0.11,0,0.27-0.07,0.47-0.22V7.38h-0.43C82.72,7.39,82.66,7.42,82.66,7.47z M82.85,6.57v0.07c0,0.05,0.13,0.08,0.4,0.09
		c1.15,0,1.72-0.07,1.72-0.22l0.09-0.17V6.29H85V6.25L82.85,6.57z M82.89,8.28v0.04h0.26l0.09-0.09V8.19l-0.13-0.04
		C82.96,8.19,82.89,8.23,82.89,8.28z M83.38,7.21l0.08,0.07h0.06c0.23-0.02,0.34-0.07,0.34-0.13l-0.11-0.04
		C83.5,7.12,83.38,7.15,83.38,7.21z M83.6,7.8l0.51-0.04h0.09c0.16,0,0.26,0.04,0.3,0.13v0.07c-0.09,0.09-0.13,0.17-0.13,0.26
		c0.1,0.06,0.21,0.09,0.32,0.09c0.05,0,0.08-0.03,0.08-0.09l0.02-0.85l-0.02-0.09H84.7c-0.13,0.09-0.48,0.23-1.06,0.42L83.6,7.73
		V7.8z M83.85,16.72v0.04c0.02,0.32,0.14,0.48,0.36,0.48h0.13l0.09-0.09v-0.04c-0.18-0.17-0.26-0.33-0.26-0.46h-0.26L83.85,16.72z
		 M84.57,8.84l0.04,0.09h0.06l0.08-0.35h-0.08C84.61,8.58,84.58,8.66,84.57,8.84z M85,17.85c0,0.09,0.23,0.13,0.7,0.13
		c0.86,0,1.28-0.04,1.28-0.13c0-0.11-0.29-0.17-0.87-0.17C85.44,17.68,85.06,17.74,85,17.85z M85.36,7.86l-0.04,0.17v0.46
		c0,0.18-0.03,0.31-0.09,0.39v0.15l0.09,0.37L85.3,9.58c0,0.14,0.05,0.23,0.15,0.3c0.04,0,0.09-0.2,0.17-0.59
		c0.24-0.17,0.36-0.32,0.36-0.44c0-0.09-0.09-0.27-0.28-0.55C85.65,8,85.58,7.86,85.49,7.86H85.36z M85.72,9.48l0.04,0.17
		c0,0.14-0.08,0.26-0.23,0.39c0.09,0.09,0.13,0.17,0.13,0.26c0,0.86,0.06,1.29,0.17,1.29h0.06c0.11-0.28,0.17-0.68,0.17-1.2
		c-0.01-0.64-0.09-0.97-0.23-1h-0.04C85.74,9.39,85.72,9.42,85.72,9.48z M86.42,8.1v0.09c0.25,0,0.52-0.15,0.79-0.46V7.71
		l-0.04-0.04h-0.02C86.97,7.67,86.72,7.82,86.42,8.1z M86.46,9.54v0.07c0.44-0.05,1.07-0.42,1.89-1.11V8.49h-0.17
		c-0.09,0-0.3,0.12-0.62,0.35C86.82,9.08,86.46,9.32,86.46,9.54z M86.63,10.22l0.06,0.09l0.09-0.02v-0.07l-0.06-0.06h-0.04
		L86.63,10.22z M87.25,10.13v0.04l0.06,0.06h0.11l0.06-0.3h-0.06L87.25,10.13z M87.74,9.74v0.04h0.08c0.28-0.23,0.42-0.42,0.42-0.55
		h-0.06V9.19C88.02,9.19,87.88,9.37,87.74,9.74z M87.97,7.45l0.04,0.02v0.04c0.15-0.05,0.23-0.09,0.23-0.13V7.34h-0.06
		C88.04,7.37,87.97,7.4,87.97,7.45z M88.44,7.21l0.06,0.07c0.82-0.2,1.23-0.34,1.23-0.43V6.82h-0.04c-0.42,0-0.83,0.12-1.25,0.37
		V7.21z M88.57,9.45c0.38-0.09,0.57-0.18,0.57-0.3L89.06,9.1h-0.06C88.75,9.1,88.61,9.21,88.57,9.45z M89.8,7.99v0.07h0.13
		c0.26-0.04,0.4-0.09,0.4-0.17V7.84h-0.17C89.92,7.86,89.8,7.91,89.8,7.99z M90.22,6.73v0.04c0.13,0,0.34,0.1,0.64,0.31l0.28,0.07
		l0.83-0.04l0.04-0.04V7.03c-0.04-0.09-0.14-0.13-0.3-0.13h-0.09l-0.26,0.06c-0.39-0.23-0.67-0.35-0.83-0.35
		C90.35,6.6,90.25,6.65,90.22,6.73z M90.25,8.54l0.04,0.04h0.04c0.39,0,0.59-0.03,0.59-0.09l-0.23-0.07
		C90.4,8.44,90.25,8.48,90.25,8.54z M91.18,9.02V9.1h0.66l0.08-0.07V8.93L91.8,8.84h-0.13C91.34,8.9,91.18,8.96,91.18,9.02z
		 M91.71,7.9c0,0.09,0.16,0.14,0.47,0.17c0.09-0.07,0.13-0.15,0.13-0.22c0-0.09-0.14-0.15-0.43-0.2C91.76,7.7,91.71,7.78,91.71,7.9z
		 M91.93,19.18v0.06c0,0.11,0.23,0.17,0.7,0.17h0.13l0.23-0.04v-0.02c-0.19-0.17-0.47-0.26-0.85-0.26h-0.09L91.93,19.18z
		 M92.05,17.92v0.15l0.06,0.07h0.08l0.06-0.07v-0.02l-0.13-0.13H92.05z M92.1,8.28l-0.04,0.04v0.04l0.11,0.05h0.02l0.08-0.05
		L92.1,8.28z M92.63,7.84c0.02,0.09,0.09,0.13,0.21,0.13h0.15l0.11-0.11V7.84c-0.03-0.07-0.11-0.11-0.26-0.11h-0.11L92.63,7.84z
		 M92.67,8.54v0.07c0,0.06,0.12,0.3,0.36,0.7c0,0.15,0.03,0.22,0.09,0.22l0.11-0.09V9.32c0-0.26-0.17-0.52-0.51-0.78H92.67z
		 M92.67,18.59c0.06,0.14,0.16,0.2,0.3,0.2c0.94-0.04,1.42-0.09,1.42-0.17c-0.13-0.15-0.35-0.22-0.66-0.22
		C93.02,18.43,92.67,18.49,92.67,18.59z M92.97,15.47c0.09,0.12,0.13,0.28,0.13,0.48h0.06l0.08-0.3v-0.44
		C93.06,15.21,92.97,15.3,92.97,15.47z M93.11,9.8v0.11c0.23,0.78,0.36,1.17,0.4,1.18l0.06-0.18v-0.22
		C93.42,10.09,93.27,9.8,93.11,9.8z M93.11,15.04l0.02,0.04h0.04c0.06-0.01,0.09-0.1,0.09-0.26v-0.3h-0.02
		C93.19,14.53,93.14,14.7,93.11,15.04z M93.99,17.02v0.09l0.09,0.09h0.04l0.06-0.06v-0.04l-0.09-0.09H93.99z M94.03,16.56v0.04h0.02
		l0.11-0.3v-0.06h-0.04C94.06,16.24,94.03,16.35,94.03,16.56z M94.05,15.34h0.08v-0.11h-0.08V15.34z M94.09,13.2v0.04l0.09,0.31
		h0.13C94.3,13.31,94.23,13.2,94.09,13.2z M94.26,9.87c0.04,0.9,0.13,1.35,0.26,1.35h0.06c-0.06-0.9-0.16-1.35-0.28-1.35H94.26z
		 M94.71,15.34l-0.06,0.54v0.63h0.04c0.21-0.27,0.32-0.52,0.32-0.76v-0.02C95.01,15.47,94.91,15.34,94.71,15.34z M95.5,17.59v0.07
		c0.79-0.01,1.19-0.07,1.19-0.17v-0.07h-0.36C95.78,17.45,95.5,17.51,95.5,17.59z M95.75,18.11v0.09c0.02,0.09,0.1,0.13,0.23,0.13
		c0.29,0,0.47-0.06,0.53-0.18v-0.07c-0.04-0.09-0.14-0.13-0.3-0.13h-0.13C95.89,17.94,95.79,18,95.75,18.11z"/>
	<path fill="000000" style="opacity: 0.1;" d="M105.02,4.73c0.2,0.16,0.55,0.28,1.05,0.37c0.35,0,1.08,0.4,2.18,1.19l0.36,0.11h0.13l0.47,0.22
		c0.46,0.35,0.73,0.61,0.79,0.78v0.04c0,0.1-0.1,0.23-0.3,0.39c-0.05,0.27-0.41,0.84-1.09,1.69v0.09l0.04,0.26
		c-0.24,0.02-0.49,0.09-0.75,0.19c-0.11,0-0.21-0.12-0.3-0.35c-0.49-0.3-0.73-0.55-0.73-0.74l0.3-0.82c0-0.33-0.57-0.57-1.71-0.71
		l-1.71-0.11c-0.59,0-1.39,0.23-2.41,0.69c-0.57,0.3-1,0.91-1.32,1.82c-0.26,0.84-0.47,1.33-0.62,1.47l-0.26-0.2
		c-0.13,0.15-0.19,0.35-0.19,0.59h0.02l0.34-0.17c0.05,0,0.08,0.06,0.09,0.17l-0.17,1.17c0.08,0.04,0.24,0.55,0.51,1.54l-0.09,0.17
		v0.09c0.09,0.09,0.16,0.37,0.21,0.86c0.15,0.51,0.65,0.97,1.51,1.39l1.39,1c1.53,0,2.89-0.33,4.08-1c1.18-1,1.77-1.67,1.77-2.01
		l-0.09-0.39v-0.04c0.01-0.07,0.4-0.49,1.15-1.25c0.05,0,0.19,0.13,0.43,0.39v0.07l-0.13,0.04l-0.21-0.04h-0.02v0.09
		c0.65,0.06,0.98,0.24,0.98,0.52c0.29,0.38,0.58,0.94,0.88,1.65c0.09,0,0.17,0.2,0.24,0.59c0.23,0.1,0.36,0.2,0.4,0.3
		c0,0.15-0.11,0.24-0.34,0.26c-0.41,0.15-0.78,0.43-1.11,0.84c-0.6-0.61-0.92-0.91-0.96-0.91l-1.45,0.91
		c-0.48,0.25-0.92,0.53-1.32,0.86l-2.71,0.87l-0.41,0.04c-0.58,0-1.4-0.17-2.48-0.5c-1.18-0.5-1.83-0.89-1.94-1.17
		c-1.47-1.72-2.2-3.07-2.2-4.03l-0.08-0.87c0.15-0.61,0.23-1.35,0.23-2.23l0.7-1.65c0-0.48,0.33-1.1,0.98-1.86
		c0.36-0.79,1.32-1.53,2.86-2.21c0.63-0.2,1.64-0.34,3.03-0.43V4.73z M98.15,12.89v0.09c0,0.17,0.08,0.27,0.24,0.3
		c0.1,0,0.11-0.28,0.04-0.84l-0.02-0.13h-0.08C98.27,12.32,98.21,12.51,98.15,12.89z M99.13,9.53l-0.45,0.8v0.13l0.09,0.11h0.06
		c0.1,0,0.23-0.28,0.4-0.86V9.53H99.13z M98.94,13.36c-0.09,0.09-0.13,0.22-0.13,0.41c0,0.1,0.08,0.27,0.24,0.52
		c0.09,0.29,0.22,0.43,0.39,0.43v-0.06c0-0.27-0.16-0.71-0.47-1.3H98.94z M98.84,15.4v0.13c0.1,0.17,0.21,0.26,0.34,0.26
		c0-0.12-0.09-0.25-0.26-0.39H98.84z M98.97,16.63v0.04c0,0.26,0.28,0.53,0.83,0.82h0.23v-0.04c0-0.2-0.31-0.47-0.92-0.82H98.97z
		 M99.07,8.97v0.04l0.06,0.06h0.04c0.2-0.15,0.3-0.29,0.3-0.43V8.58h-0.08C99.18,8.71,99.07,8.84,99.07,8.97z M99.44,15.98v0.13
		c0.06,0.16,0.16,0.24,0.28,0.24h0.04v-0.11C99.68,16.07,99.57,15.98,99.44,15.98z M99.88,7.97h0.08c0.24-0.15,0.36-0.29,0.36-0.43
		C100.12,7.54,99.98,7.68,99.88,7.97z M99.93,17.88c0.15,0.25,0.78,0.64,1.88,1.17l0.55,0.17h0.04V19.1
		c-1.1-0.46-1.78-0.85-2.03-1.19c-0.1-0.09-0.19-0.13-0.26-0.13h-0.11C99.95,17.78,99.93,17.81,99.93,17.88z M100.14,6.56v0.07h0.08
		l0.13-0.13V6.46h-0.09L100.14,6.56z M100.65,6.3l1.34-0.52l0.87-0.39c0.33-0.06,0.49-0.12,0.49-0.19V5.16c-0.75,0-1.64,0.33-2.67,1
		l-0.02,0.04V6.3z M100.82,17.78v0.02c0,0.14,0.32,0.31,0.96,0.52l1.28,0.39h0.26l0.09-0.09v-0.06h-0.02
		c-0.36,0-0.68-0.12-0.96-0.37L102,18.04h-0.04l-0.15,0.13h-0.04c-0.13,0-0.41-0.13-0.87-0.39H100.82z M101.2,7.28v0.04h0.11
		l0.09-0.11l-0.08-0.06L101.2,7.28z M102.16,6.67v0.09h0.09c0.4-0.07,0.6-0.16,0.6-0.26l-0.08-0.07h-0.06
		C102.34,6.54,102.16,6.62,102.16,6.67z M103.15,6.15v0.13l0.32,0.06c1,0,1.57-0.09,1.71-0.26c0-0.05-0.14-0.08-0.43-0.09
		C103.92,6.02,103.39,6.07,103.15,6.15z M103.6,6.93l0.26,0.06h0.04c0.56-0.02,0.86-0.09,0.88-0.19V6.72h-0.3
		C103.9,6.72,103.6,6.79,103.6,6.93z M103.94,19.36v0.04c0,0.1,0.18,0.15,0.53,0.17v-0.09l-0.02-0.04l0.09-0.09l-0.09-0.11h-0.17
		C104.06,19.26,103.94,19.3,103.94,19.36z M105.32,6.76V6.8c0,0.06,0.23,0.11,0.7,0.15V6.89l-0.47-0.13H105.32z M105.39,18.23v0.04
		h0.04c0.16,0,0.26-0.04,0.3-0.13V18.1C105.5,18.12,105.39,18.17,105.39,18.23z M105.41,6.15V6.2c0,0.1,0.18,0.16,0.53,0.17
		l0.08-0.07c0-0.1-0.1-0.15-0.3-0.15H105.41z M105.62,5.33l-0.04,0.04v0.06l0.08,0.07h0.13V5.37L105.62,5.33z M106.13,18.62h0.04
		c0.36-0.11,0.67-0.28,0.92-0.52v-0.04h-0.04C106.89,18.06,106.58,18.25,106.13,18.62z M106.24,6.37v0.06l0.09,0.11h0.08V6.46
		l-0.09-0.09H106.24z M106.52,17.65l0.04,0.02h0.02c0.44-0.17,0.66-0.35,0.66-0.54h-0.02c-0.49,0.22-0.73,0.4-0.73,0.52H106.52z
		 M107.63,7.08v0.11h0.06l0.08-0.07V7.08H107.63z M108.1,16.37h0.06c0.1-0.04,0.21-0.15,0.34-0.35v-0.06
		C108.32,15.96,108.19,16.1,108.1,16.37z M109.04,7.71v0.02l0.17,0.04h0.02l0.13-0.13V7.5l-0.06-0.06
		C109.13,7.45,109.04,7.53,109.04,7.71z M109.78,15.07v0.04c0.13,0.37,0.24,0.56,0.34,0.56l0.06-0.07V15.5
		C110.08,15.21,109.95,15.07,109.78,15.07z M110.3,14.55v0.11c0,0.2,0.33,0.85,1,1.97l0.15,0.04l0.08-0.09
		c-0.26-0.45-0.51-0.98-0.75-1.6l-0.38-0.43H110.3z M110.44,17.19v0.13l0.08,0.07h0.15c0.06,0,0.19-0.12,0.4-0.37V17
		c0-0.05-0.15-0.12-0.45-0.2C110.49,16.8,110.44,16.93,110.44,17.19z"/>
	<path fill="000000" style="opacity: 0.1;" d="M117.1,5.78c0.68,0,1.5,0.31,2.48,0.92c0.83,0.66,1.24,1.12,1.24,1.37c0.64,1.5,0.96,2.37,0.96,2.62l0.02,0.21
		c-0.24,0.6-0.37,1.01-0.37,1.24l-0.14,0.04h-2.08c-0.2,0-0.43,0.03-0.68,0.09c-2.34-0.2-3.98-0.3-4.9-0.3h-0.52
		c-0.2,0.31-0.3,0.52-0.3,0.64c0.12,0.22,0.17,0.53,0.17,0.92c0,0.67,0.09,1.07,0.28,1.18l0.04,0.13v0.02l-0.16-0.06v0.06l0.24,0.26
		c0,0.25,0.15,0.54,0.44,0.86c0.52,1.01,1.1,1.64,1.73,1.87c0.5,0.19,1.11,0.28,1.84,0.28c0.1,0,0.33-0.11,0.68-0.32
		c0.31-0.1,0.93-0.67,1.84-1.7v-0.07c0-0.04-0.11-0.07-0.31-0.09l-0.05-0.13c0.37-0.77,0.82-1.27,1.35-1.5
		c0.06,0.08,0.36,0.31,0.89,0.71c0.36,0.61,0.84,1.31,1.43,2.1v0.09c-0.53,0.72-0.9,1.09-1.14,1.09H122c0-0.39-0.22-0.61-0.65-0.66
		c-0.09,0-0.45,0.29-1.07,0.86c-0.34,0.29-0.98,0.58-1.92,0.88c-1.08,0.24-1.83,0.36-2.24,0.36l-1.38-0.52
		c-0.77,0-1.48-0.45-2.13-1.35c-0.28-0.3-0.51-0.68-0.68-1.14c0-0.11-0.18-0.83-0.54-2.15c-0.11-0.56-0.16-1.04-0.16-1.44v-0.04
		c0-2.33,0.64-4.36,1.92-6.07c0.19-0.42,0.57-0.74,1.14-0.96c0.34-0.1,0.8-0.19,1.4-0.28C115.82,5.72,116.3,5.72,117.1,5.78z
		 M111.64,12.39l-0.02,0.04v0.06l0.02,0.04c-0.04,0.09-0.05,0.21-0.05,0.36v0.11c0,0.29,0.08,0.57,0.25,0.84h0.05
		C111.89,12.99,111.81,12.5,111.64,12.39z M111.64,11.42l-0.02,0.15c0.01,0.11,0.04,0.17,0.09,0.17c0.06,0,0.1-0.09,0.12-0.26
		l-0.09-0.06H111.64z M111.96,10.03c-0.13,0.12-0.23,0.47-0.31,1.05h0.03c0.09,0,0.24-0.31,0.44-0.92
		C112.09,10.08,112.04,10.03,111.96,10.03z M111.99,14.66v0.06l0.05,0.08h0.07v-0.08l-0.07-0.06H111.99z M112.24,15.11l-0.04,0.04
		v0.04c0.09,0.29,0.19,0.43,0.28,0.43l0.02-0.04v-0.04C112.5,15.4,112.41,15.26,112.24,15.11z M112.94,11.68v0.02h0.03l0.42-0.06
		v-0.04l-0.09-0.09h-0.07C113.08,11.51,112.98,11.57,112.94,11.68z M112.97,8.53v0.02h0.05l0.07-0.06V8.46h-0.07L112.97,8.53z
		 M112.97,10.2v0.09l0.05,0.07h0.04c0.12-0.07,0.21-0.17,0.28-0.3V10h-0.1C113.12,10,113.03,10.06,112.97,10.2z M113.22,9.51v0.08
		c0,0.22,1.47,0.44,4.41,0.66l0.24,0.09l0.3-0.04c0.69,0.24,1.12,0.36,1.31,0.36c0,0.05,0.05,0.09,0.16,0.11
		c0.1-0.14,0.16-0.28,0.16-0.43V9.85c0-0.24-0.41-0.74-1.22-1.52c-0.35-0.39-0.77-0.62-1.26-0.69l-0.82-0.13
		c-1.34,0.28-2.22,0.62-2.64,1.05C113.68,8.88,113.47,9.2,113.22,9.51z M113.24,9.12v0.04c0.08-0.04,0.12-0.11,0.12-0.22V8.89
		C113.28,8.93,113.24,9,113.24,9.12z M113.31,18.03v0.09c0.01,0.1,0.15,0.2,0.42,0.3l0.11,0.09V18.5c-0.2-0.27-0.34-0.43-0.44-0.47
		H113.31z M113.48,7.97v0.06h0.04c0.22-0.06,0.33-0.12,0.33-0.19V7.8h-0.12C113.62,7.8,113.54,7.86,113.48,7.97z M113.6,11.51v0.13
		h0.12v-0.09l-0.02-0.04v-0.04L113.6,11.51z M113.88,6.76v0.04l0.07,0.06h0.02c0.33-0.09,0.49-0.18,0.49-0.26V6.44l-0.09-0.11h-0.05
		C114.03,6.42,113.88,6.57,113.88,6.76z M114.2,11.25v0.06c0.38,0.09,1.24,0.17,2.57,0.24l0.02,0.02v0.04l-0.51,0.07
		c0,0.06,0.21,0.09,0.63,0.09c0.68,0,1.01-0.04,1.01-0.13C117.92,11.47,116.68,11.34,114.2,11.25z M114.44,10.37v0.06
		c0.31,0.22,0.87,0.34,1.68,0.34h0.21l0.31-0.04v-0.09C115.9,10.47,115.17,10.38,114.44,10.37z M114.5,7.8
		c0.15-0.14,0.48-0.29,0.98-0.45V7.32l-0.04-0.04h-0.24C114.73,7.38,114.5,7.55,114.5,7.8z M114.86,6.36h0.04
		c0.3,0,0.79-0.11,1.47-0.32c0.14-0.01,0.21-0.05,0.21-0.11l-0.05-0.06h-0.04c-0.45,0-0.99,0.13-1.59,0.39l-0.04,0.04V6.36z
		 M115.06,18.12v0.04c0,0.07,0.17,0.15,0.51,0.22l0.03-0.02v-0.04c-0.23-0.14-0.41-0.21-0.52-0.21H115.06z M115.91,6.89v0.04
		c0,0.06,0.33,0.15,1,0.26l0.04-0.04V7.06c-0.13-0.2-0.34-0.3-0.65-0.3h-0.09C116.01,6.78,115.91,6.82,115.91,6.89z M116.42,18.5
		h0.11v-0.07h-0.11V18.5z M117.35,19.08l-0.52-0.06h-0.09c-0.15,0-0.23,0.03-0.25,0.09v0.04l0.09,0.09h0.44
		c0.54,0,1.12-0.09,1.77-0.26v-0.04c-0.02-0.09-0.12-0.13-0.28-0.13h-0.12C118,18.82,117.66,18.9,117.35,19.08z M116.91,6.49v0.08
		c0,0.06,0.33,0.11,0.98,0.15l0.04-0.02V6.62c0-0.06-0.1-0.11-0.3-0.13H116.91z M117.38,7.06v0.04c0.92,0.56,1.42,0.84,1.49,0.84
		h0.03l0.25-0.09l0.12,0.04l0.03-0.04V7.8c-0.08-0.06-0.22-0.12-0.4-0.17l-0.49-0.22c-0.12-0.3-0.38-0.45-0.79-0.45h-0.07
		C117.44,6.97,117.38,7,117.38,7.06z M118.82,11.12h0.09v-0.07h-0.09V11.12z M118.85,11.74c0,0.06,0.14,0.09,0.42,0.09l0.25-0.02
		v-0.04c0-0.09-0.16-0.13-0.49-0.13C118.91,11.67,118.85,11.7,118.85,11.74z M118.85,17.67h0.05c0.09-0.05,0.16-0.14,0.21-0.26
		l-0.02-0.04C118.93,17.47,118.85,17.57,118.85,17.67z M119.03,18.82c0.16,0,0.3-0.13,0.4-0.39h-0.07
		C119.14,18.56,119.03,18.69,119.03,18.82z M119.27,8.33c0.05,0.14,0.13,0.21,0.25,0.21h0.03l0.05-0.07V8.29l-0.12-0.13
		C119.34,8.16,119.27,8.22,119.27,8.33z M119.6,16.85l0.04,0.04h0.03c0.16,0,0.27-0.12,0.33-0.36v-0.04
		C119.83,16.49,119.7,16.61,119.6,16.85z M119.8,8.68c0.16,0.55,0.3,0.86,0.4,0.92h0.09l0.05-0.06c-0.13-0.55-0.27-0.82-0.42-0.82
		l-0.04-0.04H119.8z M120.16,15.35l0.05,0.06h0.1c0.11,0,0.16-0.03,0.18-0.09l-0.09-0.09h-0.04
		C120.27,15.22,120.2,15.26,120.16,15.35z M120.29,17.81h0.09c0.16-0.16,0.25-0.28,0.25-0.36h-0.04
		C120.38,17.52,120.29,17.64,120.29,17.81z M120.65,9.9v0.17l0.05,0.09c0.08-0.02,0.12-0.09,0.12-0.19V9.9l-0.05-0.06h-0.07
		L120.65,9.9z M120.74,17.07l0.07,0.07c0.25-0.09,0.37-0.21,0.37-0.36v-0.04h-0.04C120.91,16.76,120.77,16.86,120.74,17.07z
		 M121.3,16.79l0.02,0.02h0.07c0.11-0.05,0.16-0.14,0.16-0.26v-0.02h-0.07C121.36,16.62,121.3,16.71,121.3,16.79z M122.16,16.53
		l-0.04,0.02v0.04c0.06,0.22,0.13,0.34,0.21,0.34h0.03l0.05-0.07v-0.04C122.38,16.63,122.3,16.53,122.16,16.53z"/>
	<path fill="000000" style="opacity: 0.1;" d="M134.82,7.25c0.67,0,1.23,0.51,1.69,1.54c0.1,0,0.22,0.12,0.37,0.36l0.35,2.06c-0.15,0.21-0.61,0.32-1.37,0.32
		h-0.26c-0.64-0.09-0.96-0.33-0.96-0.7c0-0.27-0.2-0.62-0.59-1.06c-0.05-0.09-0.41-0.14-1.09-0.14s-1.47,0.19-2.37,0.56
		c-0.62,0.68-1.05,1.25-1.3,1.72c0.12,3.36,0.17,5.35,0.13,5.96c0,0.16,0.1,0.24,0.32,0.24h0.63c0.27,0.01,0.41,0.06,0.41,0.14v0.04
		l0.09,0.38l-0.06,1.54l-0.15,0.22l-1.2,0.12h-0.11l-0.52,0.18c-1.96-0.07-2.94-0.15-2.94-0.24c-0.35,0-0.52-0.17-0.52-0.5
		c-0.04-0.25-0.06-0.6-0.06-1.04c0-0.35,0.33-0.58,1-0.7c0-0.15,0.23-0.22,0.69-0.22l0.09-0.02v-0.04l-0.17-7.6
		c0-0.47-0.11-0.7-0.31-0.7h-0.17c-0.21,0-0.56,0.09-1.04,0.28l-0.04-0.04V9.85c0-0.04,0.07-0.09,0.2-0.14V9.67
		c-0.17,0-0.26-0.53-0.26-1.58c-0.03,0-0.05-0.16-0.07-0.48c0.7-0.59,1.42-0.88,2.15-0.88h0.65c0.22,0,0.65,0.09,1.3,0.28l0.04,0.1
		c-0.16,0.23-0.24,0.41-0.24,0.56v0.18C130.5,7.17,132.4,6.97,134.82,7.25z M125.65,19.47l-0.07,0.1v0.12l0.07,0.06h0.09v-0.18
		L125.65,19.47z M125.91,7.81c0.1,0.15,0.24,0.22,0.43,0.22l0.04-0.04v-0.2l-0.13-0.12C126.02,7.7,125.91,7.75,125.91,7.81z
		 M126.21,19.89v0.04c0,0.09,0.25,0.14,0.74,0.14h0.78l0.17-0.04c0-0.09-0.46-0.16-1.37-0.2L126.21,19.89z M126.3,8.91v0.06h0.09
		c0.17,0,0.27-0.05,0.3-0.14l-0.06-0.06h-0.04C126.42,8.77,126.32,8.82,126.3,8.91z M126.3,19.47l0.04,0.04h1.43v-0.08l-0.89-0.02
		h-0.52L126.3,19.47z M126.98,7.25v0.14l0.17,0.18h0.22V7.51l-0.3-0.26H126.98z M128.08,11.45v0.14c0.09,0.16,0.13,0.36,0.13,0.6
		c-0.04,0.08-0.07,0.45-0.09,1.12l0.07,1.12h0.02c0.07,0,0.14-0.85,0.2-2.56c0.04,0,0.06-0.19,0.06-0.58
		c-0.03-0.17-0.07-0.26-0.13-0.26h-0.06C128.14,11.13,128.08,11.27,128.08,11.45z M128.28,9.99l-0.13,0.56
		c0,0.12,0.06,0.21,0.17,0.28h0.02c0.07,0,0.12-0.13,0.13-0.38l-0.09-0.46H128.28z M128.5,19.61l0.06,0.08h0.39l0.11-0.12
		c0-0.05-0.04-0.09-0.13-0.1C128.64,19.5,128.5,19.55,128.5,19.61z M128.67,7.89v0.04l0.06,0.06l0.11-0.1v-0.1h-0.07L128.67,7.89z
		 M128.72,7.33v0.14h0.11l0.09-0.1V7.33l-0.09-0.04L128.72,7.33z M128.72,16.63v0.22h0.09l0.11-0.1v-0.14l-0.07-0.08h-0.04
		L128.72,16.63z M128.76,17.27h0.06v-0.1h-0.06V17.27z M129.24,9.11v0.08l0.07,0.06h0.09l0.07-0.06V9.11l-0.13-0.04L129.24,9.11z
		 M131,8.45v0.06c0.15,0,0.34-0.27,0.59-0.8V7.57h-0.02C131.12,7.71,130.93,8,131,8.45z M131.96,7.85l0.11,0.56h0.22l-0.02-0.6
		l-0.06-0.08h-0.07C132.03,7.76,131.96,7.8,131.96,7.85z M132.58,7.63v0.04l0.06,0.06h0.26c0.11,0,0.18-0.03,0.2-0.1l-0.04-0.04
		h-0.17L132.58,7.63z M133.41,7.57v0.06h0.17l0.09-0.1l-0.06-0.08C133.48,7.48,133.41,7.52,133.41,7.57z M134.06,7.73v0.04h0.11
		l0.06-0.06V7.67h-0.09L134.06,7.73z M134.3,9.35h0.11c0.11-0.04,0.28-0.26,0.52-0.66V8.65c0-0.04-0.04-0.06-0.11-0.06
		c-0.3,0.13-0.44,0.33-0.44,0.6C134.34,9.19,134.31,9.25,134.3,9.35z M135.02,10.09v0.08h0.06l0.11-0.12V9.99h-0.04
		C135.06,10.03,135.02,10.07,135.02,10.09z M135.04,7.63v0.04l0.06,0.06h0.11l0.06-0.06V7.63l-0.06-0.06h-0.11L135.04,7.63z
		 M135.84,8.55v0.08c0.1,0.16,0.22,0.24,0.35,0.24h0.06V8.79c-0.11-0.16-0.23-0.24-0.35-0.24H135.84z"/>
	<path fill="000000" style="opacity: 0.1;" d="M139.28,15.73c0.41,0.06,0.7,0.15,0.87,0.28c0.05,0.1,0.07,0.21,0.07,0.32v0.24c0,0.48-0.31,0.84-0.94,1.07
		l-0.25,0.09c-0.28,0-0.55-0.23-0.81-0.69v-0.09c0-0.51,0.09-0.82,0.28-0.94C138.88,15.83,139.14,15.73,139.28,15.73z M138.63,16.51
		c0.04,0.31,0.09,0.47,0.15,0.47c0.04-0.02,0.1-0.22,0.19-0.62l0.07-0.11v-0.06h-0.03C138.76,16.26,138.63,16.37,138.63,16.51z
		 M138.73,17.29c0,0.08,0.04,0.13,0.13,0.15h0.22c0.15,0,0.29-0.06,0.41-0.19v-0.03L138.73,17.29z M139.17,16.63v0.04
		c0,0.12,0.03,0.19,0.1,0.2h0.01c0.08,0,0.15-0.13,0.23-0.38V16.4l-0.04-0.04h-0.06C139.26,16.36,139.18,16.45,139.17,16.63z
		 M139.78,16.87l0.01,0.03h0.09l0.01-0.11v-0.05h-0.01C139.84,16.73,139.8,16.77,139.78,16.87z"/>
	<path fill="000000" style="opacity: 0.1;" d="M148.35,3.77c0.44,0,1.68,0.26,3.72,0.77c0.98,0.45,1.55,0.68,1.69,0.68c0.13-0.16,0.2-0.4,0.2-0.72V4.47
		l-0.04-0.18c0-0.22,0.16-0.33,0.47-0.33c0.2-0.15,0.49-0.22,0.85-0.22c0.5,0,0.76,0.06,0.76,0.16l0.23,2.4v0.73
		c0,0.61-0.08,0.98-0.25,1.1c-0.16,0.15-0.28,0.22-0.36,0.22c-0.92-0.07-1.38-0.2-1.38-0.39c-0.14-0.42-0.44-0.72-0.88-0.9
		c-1.61-0.81-2.76-1.21-3.45-1.21l-0.7-0.04c-0.83,0-1.32,0.16-1.47,0.48c-0.2,0.28-0.31,0.65-0.31,1.1v0.02
		c0,0.93,0.48,1.7,1.44,2.31c0.92,0.39,1.74,0.59,2.46,0.59c0,0.16,0.38,0.35,1.13,0.57c0.15,0.26,0.48,0.39,0.97,0.39
		c0.53,0.21,1.27,0.85,2.23,1.93l0.09,0.13v0.07c0,0.04-0.05,0.06-0.14,0.06v0.04c0.23,0.48,0.34,0.78,0.34,0.9
		c0,1.54-0.24,2.51-0.72,2.9c-0.19,0.44-0.65,0.89-1.37,1.34c-0.8,0.73-1.61,1.1-2.41,1.1h-0.86c-1.32-0.21-1.98-0.38-1.98-0.51
		c-0.74-0.54-1.18-0.81-1.31-0.81c-0.82-0.4-1.38-0.81-1.71-1.23h-0.09c-0.22,0.59-0.38,0.88-0.5,0.88
		c-1.05-0.16-1.58-0.34-1.58-0.55c-0.08-0.23-0.14-0.97-0.18-2.22l0.25-1.58c0-0.57,0.07-0.86,0.22-0.86l1.58-0.18
		c0.12,0,0.23,0.47,0.34,1.41l0.72,1.28c0,0.06,0.74,0.58,2.21,1.54c0.38,0.43,0.91,0.64,1.56,0.64h0.88c0.86,0,1.46-0.29,1.8-0.88
		c0.41-0.43,0.69-1.05,0.85-1.85v-0.07c0-0.5-0.42-1.12-1.26-1.85c-0.38-0.43-0.86-0.64-1.42-0.64c-0.26-0.15-1.01-0.31-2.23-0.48
		l-2.01-1.06l-0.97-0.84c-0.41-0.65-0.63-1.11-0.67-1.38l0.04-0.42l-0.09-0.99c0-0.23,0.14-0.51,0.43-0.83
		c0-0.21,0.4-0.67,1.21-1.39c0.74-0.4,1.18-0.73,1.31-0.99L148.35,3.77z M143.6,15.72l0.04,0.64h0.02c0.11-0.1,0.16-0.51,0.16-1.23
		v-0.18l-0.05-0.07h-0.04C143.67,14.87,143.63,15.15,143.6,15.72z M144.29,17.04v0.09l0.11,0.09h0.02l0.07-0.06v-0.04l-0.09-0.09
		H144.29z M144.45,13.66v0.09l0.07,0.07l0.09-0.07l-0.04-0.09H144.45z M145.45,6.91c0.02,0.26,0.07,0.48,0.13,0.68h0.09V7.55
		l-0.05-0.7h-0.09L145.45,6.91z M145.49,16.16v0.11c0.25,0.32,0.49,0.48,0.72,0.48h0.04v-0.07c-0.35-0.34-0.58-0.51-0.7-0.51H145.49
		z M145.67,6.25l-0.05,0.18V6.5l0.05,0.06l0.11-0.26V6.27L145.67,6.25z M146.05,9.33v0.02l0.07,0.07h0.05V9.33l-0.05-0.07
		L146.05,9.33z M146.12,7.17v0.07h0.05l0.11-0.09V7.07h-0.07L146.12,7.17z M146.41,6.01l0.02,0.04v0.04l0.11-0.04V5.95h-0.07
		L146.41,6.01z M146.53,9.42v0.06c0.12,0.37,0.23,0.55,0.34,0.55h0.09l0.13-0.13V9.86c-0.2-0.29-0.38-0.44-0.54-0.44H146.53z
		 M146.59,6.38l0.04,0.02h0.09c0.38-0.26,0.58-0.47,0.58-0.64l-0.04-0.02h-0.04c-0.19,0-0.4,0.2-0.63,0.61V6.38z M147.18,9.22v0.04
		l0.07,0.07h0.25V9.26c-0.01-0.06-0.1-0.09-0.25-0.09L147.18,9.22z M147.79,9.42l-0.04,0.04v0.15l0.16,0.17h0.05l0.07-0.06V9.59
		C147.98,9.48,147.9,9.42,147.79,9.42z M147.81,10.74l-0.02,0.02c0,0.1,0.11,0.2,0.34,0.29l0.04-0.04
		C148.17,10.93,148.05,10.84,147.81,10.74z M147.97,18.41v0.04c0,0.07,0.22,0.16,0.67,0.26l0.09,0.09h0.13
		c-0.04-0.22-0.09-0.33-0.16-0.33L147.97,18.41z M148.22,4.16v0.09c0,0.06,0.11,0.12,0.32,0.17c0.46-0.02,0.68-0.08,0.68-0.17V4.16
		c0-0.13-0.24-0.2-0.72-0.2C148.4,3.95,148.31,4.02,148.22,4.16z M148.6,10.03l-0.04,0.04v0.04c0.2,0.21,0.52,0.38,0.95,0.53
		l0.05-0.09C149.57,10.46,149.25,10.28,148.6,10.03z M148.92,5.24c0.08,0.09,0.17,0.13,0.25,0.13c0.18,0,0.35-0.09,0.52-0.28
		l-0.13-0.13h-0.27C149.05,4.96,148.92,5.06,148.92,5.24z M149.27,19.09v0.02l0.09,0.11h0.2v-0.04c-0.02-0.06-0.11-0.09-0.25-0.09
		H149.27z M149.43,18.73v0.13h0.09V18.8l-0.07-0.07H149.43z M149.8,19.24c0.23,0.13,0.54,0.2,0.94,0.2h0.04l1.1-0.04v-0.06
		c-0.05-0.13-0.62-0.2-1.73-0.2C149.92,19.15,149.8,19.18,149.8,19.24z M149.98,5.66c0,0.12,0.29,0.2,0.88,0.22V5.83
		c0-0.09-0.25-0.17-0.76-0.26h-0.04L149.98,5.66z M149.98,10.67c0,0.09,0.59,0.26,1.76,0.51l0.32,0.04h0.09v-0.04
		c-0.52-0.37-1.13-0.59-1.85-0.68C150.09,10.59,149.98,10.65,149.98,10.67z M150.27,11.4v0.11l0.41,0.13h0.27v-0.07
		C150.63,11.46,150.4,11.4,150.27,11.4z M152.12,19.15v0.07l0.07,0.06h0.09c0.31-0.02,0.47-0.07,0.47-0.13l-0.05-0.05h-0.5
		L152.12,19.15z M152.32,5.22v0.02c0,0.06,0.1,0.1,0.31,0.13h0.07V5.35C152.7,5.29,152.57,5.24,152.32,5.22z M152.63,6.17
		l-0.04,0.04v0.04c0.51,0.32,0.85,0.48,0.99,0.48V6.69C153.58,6.57,153.26,6.39,152.63,6.17z M152.72,11.77v0.06
		c0.07,0.09,0.51,0.34,1.33,0.77c0.32,0.31,0.58,0.46,0.76,0.46h0.04l0.05-0.07c-0.38-0.51-1.03-0.92-1.94-1.21H152.72z
		 M153.29,17.09v0.09h0.05c0.14-0.1,0.27-0.24,0.38-0.44l-0.05-0.07C153.54,16.74,153.41,16.88,153.29,17.09z M153.54,13.31v0.13
		c0,0.17,0.14,0.37,0.43,0.61h0.13v-0.2c0-0.21-0.17-0.38-0.52-0.53H153.54z M153.8,18.03v0.04c0,0.04,0.03,0.06,0.09,0.06
		c0.22,0,0.49-0.27,0.83-0.81h-0.07L153.8,18.03z M153.83,5.99c0.22,0.16,0.49,0.28,0.81,0.35l0.04-0.04V6.27
		c0-0.11-0.25-0.23-0.76-0.35h-0.04L153.83,5.99z M153.89,15.29v0.13l0.09,0.04l0.07-0.07l-0.04-0.09H153.89z M154.48,7.81
		c0.11,0.09,0.34,0.13,0.7,0.13l0.5-0.02V7.81c-0.2-0.04-0.51-0.05-0.92-0.05h-0.22L154.48,7.81z M154.73,4.08v0.07
		c0.18,0.29,0.34,0.44,0.49,0.44c0.12-0.01,0.22-0.1,0.31-0.26V4.25C155.52,4.14,155.26,4.08,154.73,4.08z M155.24,15.5v0.15
		l0.07,0.07h0.05c0.11-0.04,0.16-0.18,0.16-0.42h-0.09L155.24,15.5z M155.56,4.96l0.05,0.06h0.11V4.89h-0.11L155.56,4.96z"/>
	<path fill="000000" style="opacity: 0.1;" d="M163.51,5.89c0.69,0,1.54,0.32,2.54,0.97c0.85,0.7,1.27,1.18,1.27,1.44c0.66,1.58,0.98,2.5,0.98,2.76
		l0.02,0.22c-0.25,0.63-0.38,1.07-0.38,1.3l-0.14,0.04h-2.13c-0.2,0-0.44,0.03-0.7,0.1c-2.4-0.21-4.07-0.32-5.01-0.32h-0.54
		c-0.2,0.33-0.3,0.55-0.3,0.67c0.12,0.24,0.18,0.56,0.18,0.97c0,0.71,0.1,1.13,0.29,1.24l0.04,0.14v0.02l-0.16-0.06v0.06l0.25,0.28
		c0,0.26,0.15,0.57,0.45,0.91c0.54,1.07,1.13,1.72,1.77,1.97c0.51,0.2,1.14,0.3,1.88,0.3c0.11,0,0.34-0.11,0.7-0.34
		c0.32-0.11,0.95-0.7,1.88-1.8v-0.08c0-0.04-0.11-0.07-0.32-0.1l-0.05-0.14c0.38-0.82,0.84-1.34,1.38-1.58
		c0.06,0.08,0.36,0.33,0.91,0.75c0.37,0.65,0.86,1.38,1.47,2.21v0.1c-0.54,0.76-0.92,1.15-1.16,1.15h-0.09
		c0-0.41-0.22-0.64-0.66-0.69c-0.1,0-0.46,0.3-1.09,0.91c-0.35,0.3-1,0.61-1.97,0.93c-1.11,0.25-1.87,0.38-2.29,0.38l-1.41-0.55
		c-0.79,0-1.51-0.47-2.18-1.42c-0.29-0.32-0.52-0.72-0.7-1.2c0-0.12-0.19-0.88-0.55-2.27c-0.11-0.59-0.16-1.1-0.16-1.52v-0.04
		c0-2.46,0.66-4.59,1.97-6.4c0.19-0.45,0.58-0.78,1.16-1.01c0.35-0.11,0.82-0.2,1.43-0.3C162.21,5.82,162.69,5.82,163.51,5.89z
		 M157.93,12.86l-0.02,0.04v0.06l0.02,0.04c-0.04,0.09-0.05,0.22-0.05,0.38v0.12c0,0.3,0.08,0.6,0.25,0.89h0.05
		C158.18,13.48,158.1,12.98,157.93,12.86z M157.93,11.83l-0.02,0.16c0.01,0.12,0.04,0.18,0.09,0.18c0.06,0,0.1-0.09,0.13-0.28
		l-0.09-0.06H157.93z M158.26,10.37c-0.13,0.13-0.24,0.5-0.32,1.11h0.04c0.1,0,0.24-0.32,0.45-0.97
		C158.39,10.42,158.34,10.37,158.26,10.37z M158.29,15.25v0.06l0.05,0.08h0.07V15.3l-0.07-0.06H158.29z M158.54,15.72l-0.04,0.04
		v0.04c0.1,0.3,0.19,0.45,0.29,0.45l0.02-0.04v-0.04C158.81,16.03,158.72,15.88,158.54,15.72z M159.26,12.11v0.02h0.04l0.43-0.06
		v-0.04l-0.09-0.1h-0.07C159.41,11.93,159.3,11.99,159.26,12.11z M159.29,8.79v0.02h0.05l0.07-0.06V8.71h-0.07L159.29,8.79z
		 M159.29,10.55v0.1l0.05,0.08h0.04c0.12-0.08,0.21-0.18,0.29-0.32v-0.08h-0.11C159.44,10.33,159.35,10.4,159.29,10.55z
		 M159.54,9.82V9.9c0,0.24,1.5,0.47,4.51,0.69l0.25,0.1l0.3-0.04c0.7,0.25,1.15,0.38,1.34,0.38c0,0.05,0.05,0.09,0.16,0.12
		c0.11-0.14,0.16-0.3,0.16-0.45v-0.51c0-0.25-0.42-0.78-1.25-1.6c-0.36-0.41-0.79-0.65-1.29-0.73l-0.84-0.14
		c-1.37,0.29-2.27,0.66-2.7,1.11C160.02,9.15,159.81,9.49,159.54,9.82z M159.56,9.4v0.04c0.08-0.04,0.12-0.12,0.12-0.24V9.16
		C159.6,9.2,159.56,9.28,159.56,9.4z M159.63,18.8v0.1c0.01,0.11,0.15,0.21,0.43,0.32l0.11,0.1v-0.02c-0.2-0.29-0.35-0.45-0.45-0.49
		H159.63z M159.81,8.2v0.06h0.04c0.23-0.07,0.34-0.13,0.34-0.2V8.02h-0.13C159.96,8.02,159.87,8.08,159.81,8.2z M159.94,11.93v0.14
		h0.13v-0.1l-0.02-0.04v-0.04L159.94,11.93z M160.22,6.91v0.04l0.07,0.06h0.02c0.33-0.09,0.5-0.18,0.5-0.28V6.58l-0.09-0.12h-0.05
		C160.37,6.57,160.22,6.72,160.22,6.91z M160.55,11.65v0.06c0.39,0.09,1.27,0.18,2.63,0.26l0.02,0.02v0.04l-0.52,0.08
		c0,0.07,0.21,0.1,0.64,0.1c0.69,0,1.04-0.05,1.04-0.14C164.36,11.88,163.09,11.74,160.55,11.65z M160.8,10.72v0.06
		c0.32,0.24,0.89,0.36,1.72,0.36h0.21l0.32-0.04V11C162.29,10.83,161.53,10.74,160.8,10.72z M160.85,8.02c0.15-0.14,0.49-0.3,1-0.47
		V7.51l-0.04-0.04h-0.25C161.09,7.57,160.85,7.76,160.85,8.02z M161.22,6.5h0.04c0.31,0,0.81-0.11,1.5-0.34
		c0.14-0.01,0.22-0.05,0.22-0.12l-0.05-0.06h-0.04c-0.47,0-1.01,0.14-1.63,0.41l-0.04,0.04V6.5z M161.42,18.9v0.04
		c0,0.08,0.17,0.16,0.52,0.24l0.04-0.02v-0.04c-0.24-0.14-0.42-0.22-0.54-0.22H161.42z M162.3,7.05v0.04c0,0.07,0.34,0.16,1.02,0.28
		l0.04-0.04v-0.1c-0.13-0.21-0.35-0.32-0.66-0.32h-0.09C162.4,6.94,162.3,6.99,162.3,7.05z M162.82,19.29h0.11v-0.08h-0.11V19.29z
		 M163.77,19.91l-0.54-0.06h-0.09c-0.15,0-0.24,0.03-0.25,0.1v0.04l0.09,0.1h0.45c0.55,0,1.15-0.09,1.81-0.28v-0.04
		c-0.02-0.09-0.12-0.14-0.29-0.14h-0.13C164.44,19.63,164.09,19.72,163.77,19.91z M163.32,6.64v0.08c0,0.07,0.33,0.12,1,0.16
		l0.04-0.02V6.78c0-0.07-0.1-0.11-0.3-0.14H163.32z M163.8,7.23v0.04c0.94,0.59,1.45,0.89,1.52,0.89h0.04l0.25-0.1l0.13,0.04
		l0.04-0.04V8.02c-0.08-0.07-0.22-0.13-0.41-0.18l-0.5-0.24c-0.12-0.32-0.39-0.47-0.8-0.47h-0.07C163.86,7.14,163.8,7.18,163.8,7.23
		z M165.27,11.51h0.09v-0.08h-0.09V11.51z M165.3,12.17c0,0.07,0.14,0.1,0.43,0.1l0.25-0.02v-0.04c0-0.09-0.17-0.14-0.5-0.14
		C165.36,12.09,165.3,12.13,165.3,12.17z M165.3,18.42h0.05c0.1-0.05,0.17-0.14,0.21-0.28l-0.02-0.04
		C165.39,18.21,165.3,18.32,165.3,18.42z M165.48,19.63c0.17,0,0.3-0.14,0.41-0.41h-0.07C165.6,19.36,165.48,19.5,165.48,19.63z
		 M165.73,8.57c0.05,0.14,0.13,0.22,0.25,0.22h0.04l0.05-0.08V8.53l-0.13-0.14C165.8,8.39,165.73,8.45,165.73,8.57z M166.07,17.56
		l0.04,0.04h0.04c0.17,0,0.28-0.12,0.34-0.38v-0.04C166.31,17.18,166.17,17.31,166.07,17.56z M166.27,8.95
		c0.17,0.58,0.3,0.9,0.41,0.97h0.09l0.05-0.06c-0.13-0.58-0.27-0.87-0.43-0.87l-0.04-0.04H166.27z M166.65,15.98l0.05,0.06h0.11
		c0.11,0,0.17-0.03,0.18-0.1l-0.09-0.1h-0.04C166.75,15.84,166.68,15.88,166.65,15.98z M166.77,18.56h0.09
		c0.17-0.17,0.25-0.3,0.25-0.38h-0.04C166.87,18.27,166.77,18.39,166.77,18.56z M167.15,10.23v0.18l0.05,0.1
		c0.08-0.03,0.13-0.09,0.13-0.2v-0.08l-0.05-0.06h-0.07L167.15,10.23z M167.24,17.79l0.07,0.08c0.25-0.09,0.38-0.22,0.38-0.38v-0.04
		h-0.04C167.41,17.46,167.27,17.57,167.24,17.79z M167.81,17.5l0.02,0.02h0.07c0.11-0.05,0.16-0.14,0.16-0.28v-0.02h-0.07
		C167.87,17.31,167.81,17.4,167.81,17.5z M168.68,17.22l-0.04,0.02v0.04c0.06,0.24,0.13,0.36,0.22,0.36h0.04l0.05-0.08v-0.04
		C168.92,17.32,168.83,17.22,168.68,17.22z"/>
</svg>
